<?xml version="1.0" encoding="us-ascii" standalone="no"?><svg xmlns="http://www.w3.org/2000/svg" xmlns:xlink="http://www.w3.org/1999/xlink" contentStyleType="text/css" height="307px" preserveAspectRatio="none" style="width:1514px;height:307px;background:#FFFFFF;" version="1.1" viewBox="0 0 1514 307" width="1514px" zoomAndPan="magnify"><defs/><g><path d="M33,6.602 L95.5,6.602 A3.75,3.75 0 0 1 98,9.102 L105,31.6699 L109.5,31.6699 A2.5,2.5 0 0 1 112,34.1699 L112,62.2378 A2.5,2.5 0 0 1 109.5,64.7378 L33,64.7378 A2.5,2.5 0 0 1 30.5,62.2378 L30.5,9.102 A2.5,2.5 0 0 1 33,6.602 " fill="#77AADD" style="stroke:#181818;stroke-width:0.5;"/><line style="stroke:#181818;stroke-width:0.5;" x1="30.5" x2="105" y1="31.6699" y2="31.6699"/><text fill="#000000" font-family="sans-serif" font-size="14" font-weight="bold" lengthAdjust="spacing" textLength="61.5" x="34.5" y="23.5679">estimate</text><path d="M173.5,124.602 L352.5625,124.602 A3.75,3.75 0 0 1 355.0625,127.102 L362.0625,149.6699 L366.5625,149.6699 A2.5,2.5 0 0 1 369.0625,152.1699 L369.0625,180.2378 A2.5,2.5 0 0 1 366.5625,182.7378 L173.5,182.7378 A2.5,2.5 0 0 1 171,180.2378 L171,127.102 A2.5,2.5 0 0 1 173.5,124.602 " fill="#77AADD" style="stroke:#181818;stroke-width:0.5;"/><line style="stroke:#181818;stroke-width:0.5;" x1="171" x2="362.0625" y1="149.6699" y2="149.6699"/><text fill="#000000" font-family="sans-serif" font-size="14" font-weight="bold" lengthAdjust="spacing" textLength="178.0625" x="175" y="141.5679">estimate.archived_model</text><path d="M195.5,6.602 L330.375,6.602 A3.75,3.75 0 0 1 332.875,9.102 L339.875,31.6699 L344.375,31.6699 A2.5,2.5 0 0 1 346.875,34.1699 L346.875,62.2378 A2.5,2.5 0 0 1 344.375,64.7378 L195.5,64.7378 A2.5,2.5 0 0 1 193,62.2378 L193,9.102 A2.5,2.5 0 0 1 195.5,6.602 " fill="#77AADD" style="stroke:#181818;stroke-width:0.5;"/><line style="stroke:#181818;stroke-width:0.5;" x1="193" x2="339.875" y1="31.6699" y2="31.6699"/><text fill="#000000" font-family="sans-serif" font-size="14" font-weight="bold" lengthAdjust="spacing" textLength="133.875" x="197" y="23.5679">estimate.estimator</text><path d="M8.5,124.602 L119.625,124.602 A3.75,3.75 0 0 1 122.125,127.102 L129.125,149.6699 L133.625,149.6699 A2.5,2.5 0 0 1 136.125,152.1699 L136.125,180.2378 A2.5,2.5 0 0 1 133.625,182.7378 L8.5,182.7378 A2.5,2.5 0 0 1 6,180.2378 L6,127.102 A2.5,2.5 0 0 1 8.5,124.602 " fill="#99DDFF" style="stroke:#181818;stroke-width:0.5;"/><line style="stroke:#181818;stroke-width:0.5;" x1="6" x2="129.125" y1="149.6699" y2="149.6699"/><text fill="#000000" font-family="sans-serif" font-size="14" font-weight="bold" lengthAdjust="spacing" textLength="110.125" x="10" y="141.5679">estimate.model</text><path d="M736.5,124.602 L957.1875,124.602 A3.75,3.75 0 0 1 959.6875,127.102 L966.6875,149.6699 L971.1875,149.6699 A2.5,2.5 0 0 1 973.6875,152.1699 L973.6875,180.2378 A2.5,2.5 0 0 1 971.1875,182.7378 L736.5,182.7378 A2.5,2.5 0 0 1 734,180.2378 L734,127.102 A2.5,2.5 0 0 1 736.5,124.602 " fill="#99DDFF" style="stroke:#181818;stroke-width:0.5;"/><line style="stroke:#181818;stroke-width:0.5;" x1="734" x2="966.6875" y1="149.6699" y2="149.6699"/><text fill="#000000" font-family="sans-serif" font-size="14" font-weight="bold" lengthAdjust="spacing" textLength="219.6875" x="738" y="141.5679">estimate.model.curvefit_model</text><path d="M858,242.602 L1102.125,242.602 A3.75,3.75 0 0 1 1104.625,245.102 L1111.625,267.6699 L1116.125,267.6699 A2.5,2.5 0 0 1 1118.625,270.1699 L1118.625,298.2378 A2.5,2.5 0 0 1 1116.125,300.7378 L858,300.7378 A2.5,2.5 0 0 1 855.5,298.2378 L855.5,245.102 A2.5,2.5 0 0 1 858,242.602 " fill="#99DDFF" style="stroke:#181818;stroke-width:0.5;"/><line style="stroke:#181818;stroke-width:0.5;" x1="855.5" x2="1111.625" y1="267.6699" y2="267.6699"/><text fill="#000000" font-family="sans-serif" font-size="14" font-weight="bold" lengthAdjust="spacing" textLength="243.125" x="859.5" y="259.5679">estimate.model.estimate_common</text><path d="M478,124.602 L682.375,124.602 A3.75,3.75 0 0 1 684.875,127.102 L691.875,149.6699 L696.375,149.6699 A2.5,2.5 0 0 1 698.875,152.1699 L698.875,180.2378 A2.5,2.5 0 0 1 696.375,182.7378 L478,182.7378 A2.5,2.5 0 0 1 475.5,180.2378 L475.5,127.102 A2.5,2.5 0 0 1 478,124.602 " fill="#99DDFF" style="stroke:#181818;stroke-width:0.5;"/><line style="stroke:#181818;stroke-width:0.5;" x1="475.5" x2="691.875" y1="149.6699" y2="149.6699"/><text fill="#000000" font-family="sans-serif" font-size="14" font-weight="bold" lengthAdjust="spacing" textLength="203.375" x="479.5" y="141.5679">estimate.model.keras_model</text><path d="M1033,6.602 L1192.75,6.602 A3.75,3.75 0 0 1 1195.25,9.102 L1202.25,31.6699 L1206.75,31.6699 A2.5,2.5 0 0 1 1209.25,34.1699 L1209.25,62.2378 A2.5,2.5 0 0 1 1206.75,64.7378 L1033,64.7378 A2.5,2.5 0 0 1 1030.5,62.2378 L1030.5,9.102 A2.5,2.5 0 0 1 1033,6.602 " fill="#99DDFF" style="stroke:#181818;stroke-width:0.5;"/><line style="stroke:#181818;stroke-width:0.5;" x1="1030.5" x2="1202.25" y1="31.6699" y2="31.6699"/><text fill="#000000" font-family="sans-serif" font-size="14" font-weight="bold" lengthAdjust="spacing" textLength="158.75" x="1034.5" y="23.5679">estimate.model.model</text><path d="M1011.5,124.602 L1214.3125,124.602 A3.75,3.75 0 0 1 1216.8125,127.102 L1223.8125,149.6699 L1228.3125,149.6699 A2.5,2.5 0 0 1 1230.8125,152.1699 L1230.8125,180.2378 A2.5,2.5 0 0 1 1228.3125,182.7378 L1011.5,182.7378 A2.5,2.5 0 0 1 1009,180.2378 L1009,127.102 A2.5,2.5 0 0 1 1011.5,124.602 " fill="#99DDFF" style="stroke:#181818;stroke-width:0.5;"/><line style="stroke:#181818;stroke-width:0.5;" x1="1009" x2="1223.8125" y1="149.6699" y2="149.6699"/><text fill="#000000" font-family="sans-serif" font-size="14" font-weight="bold" lengthAdjust="spacing" textLength="201.8125" x="1013" y="141.5679">estimate.model.scikit_model</text><path d="M1269,124.602 L1491.25,124.602 A3.75,3.75 0 0 1 1493.75,127.102 L1500.75,149.6699 L1505.25,149.6699 A2.5,2.5 0 0 1 1507.75,152.1699 L1507.75,180.2378 A2.5,2.5 0 0 1 1505.25,182.7378 L1269,182.7378 A2.5,2.5 0 0 1 1266.5,180.2378 L1266.5,127.102 A2.5,2.5 0 0 1 1269,124.602 " fill="#99DDFF" style="stroke:#181818;stroke-width:0.5;"/><line style="stroke:#181818;stroke-width:0.5;" x1="1266.5" x2="1500.75" y1="149.6699" y2="149.6699"/><text fill="#000000" font-family="sans-serif" font-size="14" font-weight="bold" lengthAdjust="spacing" textLength="221.25" x="1270.5" y="141.5679">estimate.model.xgboost_model</text><path d="M219,242.602 L458.5625,242.602 A3.75,3.75 0 0 1 461.0625,245.102 L468.0625,267.6699 L472.5625,267.6699 A2.5,2.5 0 0 1 475.0625,270.1699 L475.0625,298.2378 A2.5,2.5 0 0 1 472.5625,300.7378 L219,300.7378 A2.5,2.5 0 0 1 216.5,298.2378 L216.5,245.102 A2.5,2.5 0 0 1 219,242.602 " fill="#77AADD" style="stroke:#181818;stroke-width:0.5;"/><line style="stroke:#181818;stroke-width:0.5;" x1="216.5" x2="468.0625" y1="267.6699" y2="267.6699"/><text fill="#000000" font-family="sans-serif" font-size="14" font-weight="bold" lengthAdjust="spacing" textLength="238.5625" x="220.5" y="259.5679">estimate.model_server_connector</text><!--link estimate to estimate.model--><g id="link_estimate_estimate.model"><path codeLine="24" d="M71,64.982 C71,82.952 71,100.122 71,118.112 " fill="none" id="estimate-to-estimate.model" style="stroke:#181818;stroke-width:1.0;"/><polygon fill="#181818" points="71,124.112,75,115.112,71,119.112,67,115.112,71,124.112" style="stroke:#181818;stroke-width:1.0;"/></g><!--link estimate.archived_model to estimate.model_server_connector--><g id="link_estimate.archived_model_estimate.model_server_connector"><path codeLine="25" d="M288.59,182.982 C300.37,200.952 312.2612,219.1037 324.0512,237.0937 " fill="none" id="estimate.archived_model-to-estimate.model_server_connector" style="stroke:#181818;stroke-width:1.0;"/><polygon fill="#181818" points="327.34,242.112,325.7523,232.3919,324.5993,237.93,319.0612,236.777,327.34,242.112" style="stroke:#181818;stroke-width:1.0;"/></g><!--link estimate.estimator to estimate.archived_model--><g id="link_estimate.estimator_estimate.archived_model"><path codeLine="26" d="M270,64.982 C270,82.952 270,100.122 270,118.112 " fill="none" id="estimate.estimator-to-estimate.archived_model" style="stroke:#181818;stroke-width:1.0;"/><polygon fill="#181818" points="270,124.112,274,115.112,270,119.112,266,115.112,270,124.112" style="stroke:#181818;stroke-width:1.0;"/></g><!--link estimate.estimator to estimate.model--><g id="link_estimate.estimator_estimate.model"><path codeLine="27" d="M221.32,64.982 C190.48,82.952 155.924,103.1009 125.054,121.0909 " fill="none" id="estimate.estimator-to-estimate.model" style="stroke:#181818;stroke-width:1.0;"/><polygon fill="#181818" points="119.87,124.112,129.66,123.0364,124.19,121.5945,125.6319,116.1245,119.87,124.112" style="stroke:#181818;stroke-width:1.0;"/></g><!--link estimate.estimator to estimate.model_server_connector--><g id="link_estimate.estimator_estimate.model_server_connector"><path codeLine="28" d="M327.17,64.932 C349.84,79.412 373.46,99.362 386,124.602 C405.11,163.092 386.569,206.8222 368.459,237.1122 " fill="none" id="estimate.estimator-to-estimate.model_server_connector" style="stroke:#181818;stroke-width:1.0;"/><polygon fill="#181818" points="365.38,242.262,373.4316,236.59,367.9458,237.9705,366.5653,232.4847,365.38,242.262" style="stroke:#181818;stroke-width:1.0;"/></g><!--link estimate.model.curvefit_model to estimate.model.estimate_common--><g id="link_estimate.model.curvefit_model_estimate.model.estimate_common"><path codeLine="29" d="M886.54,182.982 C907.15,200.952 929.1879,220.1786 949.8179,238.1686 " fill="none" id="estimate.model.curvefit_model-to-estimate.model.estimate_common" style="stroke:#181818;stroke-width:1.0;"/><polygon fill="#181818" points="954.34,242.112,950.1858,233.1821,950.5716,238.8258,944.9279,239.2116,954.34,242.112" style="stroke:#181818;stroke-width:1.0;"/></g><!--link estimate.model.keras_model to estimate.model.estimate_common--><g id="link_estimate.model.keras_model_estimate.model.estimate_common"><path codeLine="30" d="M685.11,183.052 C747.1,201.032 821.1476,222.5003 883.1276,240.4803 " fill="none" id="estimate.model.keras_model-to-estimate.model.estimate_common" style="stroke:#181818;stroke-width:1.0;"/><polygon fill="#181818" points="888.89,242.152,881.3608,235.8029,884.088,240.7589,879.1319,243.4861,888.89,242.152" style="stroke:#181818;stroke-width:1.0;"/></g><!--link estimate.model.model to estimate.model.curvefit_model--><g id="link_estimate.model.model_estimate.model.curvefit_model"><path codeLine="31" d="M1054.93,64.982 C1013.71,82.952 966.0902,103.7244 924.8202,121.7144 " fill="none" id="estimate.model.model-to-estimate.model.curvefit_model" style="stroke:#181818;stroke-width:1.0;"/><polygon fill="#181818" points="919.32,124.112,929.1686,124.1824,923.9035,122.114,925.9718,116.8489,919.32,124.112" style="stroke:#181818;stroke-width:1.0;"/></g><!--link estimate.model.model to estimate.model.scikit_model--><g id="link_estimate.model.model_estimate.model.scikit_model"><path codeLine="32" d="M1120,64.982 C1120,82.952 1120,100.122 1120,118.112 " fill="none" id="estimate.model.model-to-estimate.model.scikit_model" style="stroke:#181818;stroke-width:1.0;"/><polygon fill="#181818" points="1120,124.112,1124,115.112,1120,119.112,1116,115.112,1120,124.112" style="stroke:#181818;stroke-width:1.0;"/></g><!--link estimate.model.model to estimate.model.xgboost_model--><g id="link_estimate.model.model_estimate.model.xgboost_model"><path codeLine="33" d="M1185.32,64.982 C1226.69,82.952 1274.5067,103.7317 1315.9267,121.7217 " fill="none" id="estimate.model.model-to-estimate.model.xgboost_model" style="stroke:#181818;stroke-width:1.0;"/><polygon fill="#181818" points="1321.43,124.112,1314.7685,116.8577,1316.8439,122.1201,1311.5815,124.1955,1321.43,124.112" style="stroke:#181818;stroke-width:1.0;"/></g><!--link estimate.model.scikit_model to estimate.model.estimate_common--><g id="link_estimate.model.scikit_model_estimate.model.estimate_common"><path codeLine="34" d="M1087.46,182.982 C1066.85,200.952 1044.8121,220.1786 1024.1821,238.1686 " fill="none" id="estimate.model.scikit_model-to-estimate.model.estimate_common" style="stroke:#181818;stroke-width:1.0;"/><polygon fill="#181818" points="1019.66,242.112,1029.0721,239.2116,1023.4284,238.8258,1023.8142,233.1821,1019.66,242.112" style="stroke:#181818;stroke-width:1.0;"/></g><!--link estimate.model.xgboost_model to estimate.model.estimate_common--><g id="link_estimate.model.xgboost_model_estimate.model.estimate_common"><path codeLine="35" d="M1288.89,183.052 C1226.9,201.032 1152.8524,222.5003 1090.8724,240.4803 " fill="none" id="estimate.model.xgboost_model-to-estimate.model.estimate_common" style="stroke:#181818;stroke-width:1.0;"/><polygon fill="#181818" points="1085.11,242.152,1094.8681,243.4861,1089.912,240.7589,1092.6392,235.8029,1085.11,242.152" style="stroke:#181818;stroke-width:1.0;"/></g><!--SRC=[bPDD3i8W48Ntd8BeMhV6ZKcJnWjuW6R4KPiA641ZOhoxNLZJuQzq1ynxtqpfmwBZ2YJQEmWyu1qCE6suqWfPVzJ11Va2hMibE5nmi7pOyELcKrLrpT_i4qhNOCIrVUAfaVg4D-BqQXEWtq8RolWVJzWZxNzTjzkwtkzpjhLuc2UUMzUaA9wY23fi6w6br2f6zIH5s0uDsFIWet8HBWagHrZHThcx6zUBWA_BKMkR8H912RAnsFy_qz-pKYY2aCKr977_vx1QxJmZImK-b0OzM2Jen4QHa_8PgimiqSo713-_B9F5-UwaZyvLR1l7iDX4aiPomPx_WJJ5q_ul]--></g></svg>