<?xml version="1.0" encoding="us-ascii" standalone="no"?><svg xmlns="http://www.w3.org/2000/svg" xmlns:xlink="http://www.w3.org/1999/xlink" contentStyleType="text/css" height="71px" preserveAspectRatio="none" style="width:9126px;height:71px;background:#FFFFFF;" version="1.1" viewBox="0 0 9126 71" width="9126px" zoomAndPan="magnify"><defs/><g><path d="M8.5,6.602 L122.9375,6.602 A3.75,3.75 0 0 1 125.4375,9.102 L132.4375,31.6699 L136.9375,31.6699 A2.5,2.5 0 0 1 139.4375,34.1699 L139.4375,62.2378 A2.5,2.5 0 0 1 136.9375,64.7378 L8.5,64.7378 A2.5,2.5 0 0 1 6,62.2378 L6,9.102 A2.5,2.5 0 0 1 8.5,6.602 " fill="#77AADD" style="stroke:#181818;stroke-width:0.5;"/><line style="stroke:#181818;stroke-width:0.5;" x1="6" x2="132.4375" y1="31.6699" y2="31.6699"/><text fill="#000000" font-family="sans-serif" font-size="14" font-weight="bold" lengthAdjust="spacing" textLength="113.4375" x="10" y="23.5679">src.train.trainer</text><path d="M176.5,6.602 L510.625,6.602 A3.75,3.75 0 0 1 513.125,9.102 L520.125,31.6699 L524.625,31.6699 A2.5,2.5 0 0 1 527.125,34.1699 L527.125,62.2378 A2.5,2.5 0 0 1 524.625,64.7378 L176.5,64.7378 A2.5,2.5 0 0 1 174,62.2378 L174,9.102 A2.5,2.5 0 0 1 176.5,6.602 " fill="#77AADD" style="stroke:#181818;stroke-width:0.5;"/><line style="stroke:#181818;stroke-width:0.5;" x1="174" x2="520.125" y1="31.6699" y2="31.6699"/><text fill="#000000" font-family="sans-serif" font-size="14" font-weight="bold" lengthAdjust="spacing" textLength="333.125" x="178" y="23.5679">src.train.trainer.ExponentialRegressionTrainer</text><path d="M564.5,6.602 L938.8125,6.602 A3.75,3.75 0 0 1 941.3125,9.102 L948.3125,31.6699 L952.8125,31.6699 A2.5,2.5 0 0 1 955.3125,34.1699 L955.3125,62.2378 A2.5,2.5 0 0 1 952.8125,64.7378 L564.5,64.7378 A2.5,2.5 0 0 1 562,62.2378 L562,9.102 A2.5,2.5 0 0 1 564.5,6.602 " fill="#77AADD" style="stroke:#181818;stroke-width:0.5;"/><line style="stroke:#181818;stroke-width:0.5;" x1="562" x2="948.3125" y1="31.6699" y2="31.6699"/><text fill="#000000" font-family="sans-serif" font-size="14" font-weight="bold" lengthAdjust="spacing" textLength="373.3125" x="566" y="23.5679">src.train.trainer.ExponentialRegressionTrainer.main</text><path d="M992.5,6.602 L1360.375,6.602 A3.75,3.75 0 0 1 1362.875,9.102 L1369.875,31.6699 L1374.375,31.6699 A2.5,2.5 0 0 1 1376.875,34.1699 L1376.875,62.2378 A2.5,2.5 0 0 1 1374.375,64.7378 L992.5,64.7378 A2.5,2.5 0 0 1 990,62.2378 L990,9.102 A2.5,2.5 0 0 1 992.5,6.602 " fill="#77AADD" style="stroke:#181818;stroke-width:0.5;"/><line style="stroke:#181818;stroke-width:0.5;" x1="990" x2="1369.875" y1="31.6699" y2="31.6699"/><text fill="#000000" font-family="sans-serif" font-size="14" font-weight="bold" lengthAdjust="spacing" textLength="366.875" x="994" y="23.5679">src.train.trainer.GradientBoostingRegressorTrainer</text><path d="M1414.5,6.602 L1822.5625,6.602 A3.75,3.75 0 0 1 1825.0625,9.102 L1832.0625,31.6699 L1836.5625,31.6699 A2.5,2.5 0 0 1 1839.0625,34.1699 L1839.0625,62.2378 A2.5,2.5 0 0 1 1836.5625,64.7378 L1414.5,64.7378 A2.5,2.5 0 0 1 1412,62.2378 L1412,9.102 A2.5,2.5 0 0 1 1414.5,6.602 " fill="#77AADD" style="stroke:#181818;stroke-width:0.5;"/><line style="stroke:#181818;stroke-width:0.5;" x1="1412" x2="1832.0625" y1="31.6699" y2="31.6699"/><text fill="#000000" font-family="sans-serif" font-size="14" font-weight="bold" lengthAdjust="spacing" textLength="407.0625" x="1416" y="23.5679">src.train.trainer.GradientBoostingRegressorTrainer.main</text><path d="M1877,6.602 L2204.25,6.602 A3.75,3.75 0 0 1 2206.75,9.102 L2213.75,31.6699 L2218.25,31.6699 A2.5,2.5 0 0 1 2220.75,34.1699 L2220.75,62.2378 A2.5,2.5 0 0 1 2218.25,64.7378 L1877,64.7378 A2.5,2.5 0 0 1 1874.5,62.2378 L1874.5,9.102 A2.5,2.5 0 0 1 1877,6.602 " fill="#77AADD" style="stroke:#181818;stroke-width:0.5;"/><line style="stroke:#181818;stroke-width:0.5;" x1="1874.5" x2="2213.75" y1="31.6699" y2="31.6699"/><text fill="#000000" font-family="sans-serif" font-size="14" font-weight="bold" lengthAdjust="spacing" textLength="326.25" x="1878.5" y="23.5679">src.train.trainer.KNeighborsRegressorTrainer</text><path d="M2258,6.602 L2625.4375,6.602 A3.75,3.75 0 0 1 2627.9375,9.102 L2634.9375,31.6699 L2639.4375,31.6699 A2.5,2.5 0 0 1 2641.9375,34.1699 L2641.9375,62.2378 A2.5,2.5 0 0 1 2639.4375,64.7378 L2258,64.7378 A2.5,2.5 0 0 1 2255.5,62.2378 L2255.5,9.102 A2.5,2.5 0 0 1 2258,6.602 " fill="#77AADD" style="stroke:#181818;stroke-width:0.5;"/><line style="stroke:#181818;stroke-width:0.5;" x1="2255.5" x2="2634.9375" y1="31.6699" y2="31.6699"/><text fill="#000000" font-family="sans-serif" font-size="14" font-weight="bold" lengthAdjust="spacing" textLength="366.4375" x="2259.5" y="23.5679">src.train.trainer.KNeighborsRegressorTrainer.main</text><path d="M2679,6.602 L2973.9375,6.602 A3.75,3.75 0 0 1 2976.4375,9.102 L2983.4375,31.6699 L2987.9375,31.6699 A2.5,2.5 0 0 1 2990.4375,34.1699 L2990.4375,62.2378 A2.5,2.5 0 0 1 2987.9375,64.7378 L2679,64.7378 A2.5,2.5 0 0 1 2676.5,62.2378 L2676.5,9.102 A2.5,2.5 0 0 1 2679,6.602 " fill="#77AADD" style="stroke:#181818;stroke-width:0.5;"/><line style="stroke:#181818;stroke-width:0.5;" x1="2676.5" x2="2983.4375" y1="31.6699" y2="31.6699"/><text fill="#000000" font-family="sans-serif" font-size="14" font-weight="bold" lengthAdjust="spacing" textLength="293.9375" x="2680.5" y="23.5679">src.train.trainer.LinearRegressionTrainer</text><path d="M3028,6.602 L3363.125,6.602 A3.75,3.75 0 0 1 3365.625,9.102 L3372.625,31.6699 L3377.125,31.6699 A2.5,2.5 0 0 1 3379.625,34.1699 L3379.625,62.2378 A2.5,2.5 0 0 1 3377.125,64.7378 L3028,64.7378 A2.5,2.5 0 0 1 3025.5,62.2378 L3025.5,9.102 A2.5,2.5 0 0 1 3028,6.602 " fill="#77AADD" style="stroke:#181818;stroke-width:0.5;"/><line style="stroke:#181818;stroke-width:0.5;" x1="3025.5" x2="3372.625" y1="31.6699" y2="31.6699"/><text fill="#000000" font-family="sans-serif" font-size="14" font-weight="bold" lengthAdjust="spacing" textLength="334.125" x="3029.5" y="23.5679">src.train.trainer.LinearRegressionTrainer.main</text><path d="M3417,6.602 L3752.125,6.602 A3.75,3.75 0 0 1 3754.625,9.102 L3761.625,31.6699 L3766.125,31.6699 A2.5,2.5 0 0 1 3768.625,34.1699 L3768.625,62.2378 A2.5,2.5 0 0 1 3766.125,64.7378 L3417,64.7378 A2.5,2.5 0 0 1 3414.5,62.2378 L3414.5,9.102 A2.5,2.5 0 0 1 3417,6.602 " fill="#77AADD" style="stroke:#181818;stroke-width:0.5;"/><line style="stroke:#181818;stroke-width:0.5;" x1="3414.5" x2="3761.625" y1="31.6699" y2="31.6699"/><text fill="#000000" font-family="sans-serif" font-size="14" font-weight="bold" lengthAdjust="spacing" textLength="334.125" x="3418.5" y="23.5679">src.train.trainer.LogarithmicRegressionTrainer</text><path d="M3806,6.602 L4181.3125,6.602 A3.75,3.75 0 0 1 4183.8125,9.102 L4190.8125,31.6699 L4195.3125,31.6699 A2.5,2.5 0 0 1 4197.8125,34.1699 L4197.8125,62.2378 A2.5,2.5 0 0 1 4195.3125,64.7378 L3806,64.7378 A2.5,2.5 0 0 1 3803.5,62.2378 L3803.5,9.102 A2.5,2.5 0 0 1 3806,6.602 " fill="#77AADD" style="stroke:#181818;stroke-width:0.5;"/><line style="stroke:#181818;stroke-width:0.5;" x1="3803.5" x2="4190.8125" y1="31.6699" y2="31.6699"/><text fill="#000000" font-family="sans-serif" font-size="14" font-weight="bold" lengthAdjust="spacing" textLength="374.3125" x="3807.5" y="23.5679">src.train.trainer.LogarithmicRegressionTrainer.main</text><path d="M4235,6.602 L4539.8125,6.602 A3.75,3.75 0 0 1 4542.3125,9.102 L4549.3125,31.6699 L4553.8125,31.6699 A2.5,2.5 0 0 1 4556.3125,34.1699 L4556.3125,62.2378 A2.5,2.5 0 0 1 4553.8125,64.7378 L4235,64.7378 A2.5,2.5 0 0 1 4232.5,62.2378 L4232.5,9.102 A2.5,2.5 0 0 1 4235,6.602 " fill="#77AADD" style="stroke:#181818;stroke-width:0.5;"/><line style="stroke:#181818;stroke-width:0.5;" x1="4232.5" x2="4549.3125" y1="31.6699" y2="31.6699"/><text fill="#000000" font-family="sans-serif" font-size="14" font-weight="bold" lengthAdjust="spacing" textLength="303.8125" x="4236.5" y="23.5679">src.train.trainer.LogisticRegressionTrainer</text><path d="M4594,6.602 L4939,6.602 A3.75,3.75 0 0 1 4941.5,9.102 L4948.5,31.6699 L4953,31.6699 A2.5,2.5 0 0 1 4955.5,34.1699 L4955.5,62.2378 A2.5,2.5 0 0 1 4953,64.7378 L4594,64.7378 A2.5,2.5 0 0 1 4591.5,62.2378 L4591.5,9.102 A2.5,2.5 0 0 1 4594,6.602 " fill="#77AADD" style="stroke:#181818;stroke-width:0.5;"/><line style="stroke:#181818;stroke-width:0.5;" x1="4591.5" x2="4948.5" y1="31.6699" y2="31.6699"/><text fill="#000000" font-family="sans-serif" font-size="14" font-weight="bold" lengthAdjust="spacing" textLength="344" x="4595.5" y="23.5679">src.train.trainer.LogisticRegressionTrainer.main</text><path d="M4993.5,6.602 L5321.1875,6.602 A3.75,3.75 0 0 1 5323.6875,9.102 L5330.6875,31.6699 L5335.1875,31.6699 A2.5,2.5 0 0 1 5337.6875,34.1699 L5337.6875,62.2378 A2.5,2.5 0 0 1 5335.1875,64.7378 L4993.5,64.7378 A2.5,2.5 0 0 1 4991,62.2378 L4991,9.102 A2.5,2.5 0 0 1 4993.5,6.602 " fill="#77AADD" style="stroke:#181818;stroke-width:0.5;"/><line style="stroke:#181818;stroke-width:0.5;" x1="4991" x2="5330.6875" y1="31.6699" y2="31.6699"/><text fill="#000000" font-family="sans-serif" font-size="14" font-weight="bold" lengthAdjust="spacing" textLength="326.6875" x="4995" y="23.5679">src.train.trainer.PolynomialRegressionTrainer</text><path d="M5375.5,6.602 L5743.375,6.602 A3.75,3.75 0 0 1 5745.875,9.102 L5752.875,31.6699 L5757.375,31.6699 A2.5,2.5 0 0 1 5759.875,34.1699 L5759.875,62.2378 A2.5,2.5 0 0 1 5757.375,64.7378 L5375.5,64.7378 A2.5,2.5 0 0 1 5373,62.2378 L5373,9.102 A2.5,2.5 0 0 1 5375.5,6.602 " fill="#77AADD" style="stroke:#181818;stroke-width:0.5;"/><line style="stroke:#181818;stroke-width:0.5;" x1="5373" x2="5752.875" y1="31.6699" y2="31.6699"/><text fill="#000000" font-family="sans-serif" font-size="14" font-weight="bold" lengthAdjust="spacing" textLength="366.875" x="5377" y="23.5679">src.train.trainer.PolynomialRegressionTrainer.main</text><path d="M5797.5,6.602 L6069.6875,6.602 A3.75,3.75 0 0 1 6072.1875,9.102 L6079.1875,31.6699 L6083.6875,31.6699 A2.5,2.5 0 0 1 6086.1875,34.1699 L6086.1875,62.2378 A2.5,2.5 0 0 1 6083.6875,64.7378 L5797.5,64.7378 A2.5,2.5 0 0 1 5795,62.2378 L5795,9.102 A2.5,2.5 0 0 1 5797.5,6.602 " fill="#77AADD" style="stroke:#181818;stroke-width:0.5;"/><line style="stroke:#181818;stroke-width:0.5;" x1="5795" x2="6079.1875" y1="31.6699" y2="31.6699"/><text fill="#000000" font-family="sans-serif" font-size="14" font-weight="bold" lengthAdjust="spacing" textLength="271.1875" x="5799" y="23.5679">src.train.trainer.SGDRegressorTrainer</text><path d="M6123.5,6.602 L6435.875,6.602 A3.75,3.75 0 0 1 6438.375,9.102 L6445.375,31.6699 L6449.875,31.6699 A2.5,2.5 0 0 1 6452.375,34.1699 L6452.375,62.2378 A2.5,2.5 0 0 1 6449.875,64.7378 L6123.5,64.7378 A2.5,2.5 0 0 1 6121,62.2378 L6121,9.102 A2.5,2.5 0 0 1 6123.5,6.602 " fill="#77AADD" style="stroke:#181818;stroke-width:0.5;"/><line style="stroke:#181818;stroke-width:0.5;" x1="6121" x2="6445.375" y1="31.6699" y2="31.6699"/><text fill="#000000" font-family="sans-serif" font-size="14" font-weight="bold" lengthAdjust="spacing" textLength="311.375" x="6125" y="23.5679">src.train.trainer.SGDRegressorTrainer.main</text><path d="M6490,6.602 L6759.1875,6.602 A3.75,3.75 0 0 1 6761.6875,9.102 L6768.6875,31.6699 L6773.1875,31.6699 A2.5,2.5 0 0 1 6775.6875,34.1699 L6775.6875,62.2378 A2.5,2.5 0 0 1 6773.1875,64.7378 L6490,64.7378 A2.5,2.5 0 0 1 6487.5,62.2378 L6487.5,9.102 A2.5,2.5 0 0 1 6490,6.602 " fill="#77AADD" style="stroke:#181818;stroke-width:0.5;"/><line style="stroke:#181818;stroke-width:0.5;" x1="6487.5" x2="6768.6875" y1="31.6699" y2="31.6699"/><text fill="#000000" font-family="sans-serif" font-size="14" font-weight="bold" lengthAdjust="spacing" textLength="268.1875" x="6491.5" y="23.5679">src.train.trainer.SVRRegressorTrainer</text><path d="M6813,6.602 L7122.375,6.602 A3.75,3.75 0 0 1 7124.875,9.102 L7131.875,31.6699 L7136.375,31.6699 A2.5,2.5 0 0 1 7138.875,34.1699 L7138.875,62.2378 A2.5,2.5 0 0 1 7136.375,64.7378 L6813,64.7378 A2.5,2.5 0 0 1 6810.5,62.2378 L6810.5,9.102 A2.5,2.5 0 0 1 6813,6.602 " fill="#77AADD" style="stroke:#181818;stroke-width:0.5;"/><line style="stroke:#181818;stroke-width:0.5;" x1="6810.5" x2="7131.875" y1="31.6699" y2="31.6699"/><text fill="#000000" font-family="sans-serif" font-size="14" font-weight="bold" lengthAdjust="spacing" textLength="308.375" x="6814.5" y="23.5679">src.train.trainer.SVRRegressorTrainer.main</text><path d="M7176,6.602 L7405,6.602 A3.75,3.75 0 0 1 7407.5,9.102 L7414.5,31.6699 L7419,31.6699 A2.5,2.5 0 0 1 7421.5,34.1699 L7421.5,62.2378 A2.5,2.5 0 0 1 7419,64.7378 L7176,64.7378 A2.5,2.5 0 0 1 7173.5,62.2378 L7173.5,9.102 A2.5,2.5 0 0 1 7176,6.602 " fill="#77AADD" style="stroke:#181818;stroke-width:0.5;"/><line style="stroke:#181818;stroke-width:0.5;" x1="7173.5" x2="7414.5" y1="31.6699" y2="31.6699"/><text fill="#000000" font-family="sans-serif" font-size="14" font-weight="bold" lengthAdjust="spacing" textLength="228" x="7177.5" y="23.5679">src.train.trainer.XGBoostTrainer</text><path d="M7459,6.602 L7728.1875,6.602 A3.75,3.75 0 0 1 7730.6875,9.102 L7737.6875,31.6699 L7742.1875,31.6699 A2.5,2.5 0 0 1 7744.6875,34.1699 L7744.6875,62.2378 A2.5,2.5 0 0 1 7742.1875,64.7378 L7459,64.7378 A2.5,2.5 0 0 1 7456.5,62.2378 L7456.5,9.102 A2.5,2.5 0 0 1 7459,6.602 " fill="#77AADD" style="stroke:#181818;stroke-width:0.5;"/><line style="stroke:#181818;stroke-width:0.5;" x1="7456.5" x2="7737.6875" y1="31.6699" y2="31.6699"/><text fill="#000000" font-family="sans-serif" font-size="14" font-weight="bold" lengthAdjust="spacing" textLength="268.1875" x="7460.5" y="23.5679">src.train.trainer.XGBoostTrainer.main</text><path d="M7782,6.602 L8027.3125,6.602 A3.75,3.75 0 0 1 8029.8125,9.102 L8036.8125,31.6699 L8041.3125,31.6699 A2.5,2.5 0 0 1 8043.8125,34.1699 L8043.8125,62.2378 A2.5,2.5 0 0 1 8041.3125,64.7378 L7782,64.7378 A2.5,2.5 0 0 1 7779.5,62.2378 L7779.5,9.102 A2.5,2.5 0 0 1 7782,6.602 " fill="#77AADD" style="stroke:#181818;stroke-width:0.5;"/><line style="stroke:#181818;stroke-width:0.5;" x1="7779.5" x2="8036.8125" y1="31.6699" y2="31.6699"/><text fill="#000000" font-family="sans-serif" font-size="14" font-weight="bold" lengthAdjust="spacing" textLength="244.3125" x="7783.5" y="23.5679">src.train.trainer.XgboostFitTrainer</text><path d="M8081.5,6.602 L8367,6.602 A3.75,3.75 0 0 1 8369.5,9.102 L8376.5,31.6699 L8381,31.6699 A2.5,2.5 0 0 1 8383.5,34.1699 L8383.5,62.2378 A2.5,2.5 0 0 1 8381,64.7378 L8081.5,64.7378 A2.5,2.5 0 0 1 8079,62.2378 L8079,9.102 A2.5,2.5 0 0 1 8081.5,6.602 " fill="#77AADD" style="stroke:#181818;stroke-width:0.5;"/><line style="stroke:#181818;stroke-width:0.5;" x1="8079" x2="8376.5" y1="31.6699" y2="31.6699"/><text fill="#000000" font-family="sans-serif" font-size="14" font-weight="bold" lengthAdjust="spacing" textLength="284.5" x="8083" y="23.5679">src.train.trainer.XgboostFitTrainer.main</text><path d="M8422,6.602 L8595.375,6.602 A3.75,3.75 0 0 1 8597.875,9.102 L8604.875,31.6699 L8609.375,31.6699 A2.5,2.5 0 0 1 8611.875,34.1699 L8611.875,62.2378 A2.5,2.5 0 0 1 8609.375,64.7378 L8422,64.7378 A2.5,2.5 0 0 1 8419.5,62.2378 L8419.5,9.102 A2.5,2.5 0 0 1 8422,6.602 " fill="#77AADD" style="stroke:#181818;stroke-width:0.5;"/><line style="stroke:#181818;stroke-width:0.5;" x1="8419.5" x2="8604.875" y1="31.6699" y2="31.6699"/><text fill="#000000" font-family="sans-serif" font-size="14" font-weight="bold" lengthAdjust="spacing" textLength="172.375" x="8423.5" y="23.5679">src.train.trainer.curvefit</text><path d="M8649,6.602 L8804.5,6.602 A3.75,3.75 0 0 1 8807,9.102 L8814,31.6699 L8818.5,31.6699 A2.5,2.5 0 0 1 8821,34.1699 L8821,62.2378 A2.5,2.5 0 0 1 8818.5,64.7378 L8649,64.7378 A2.5,2.5 0 0 1 8646.5,62.2378 L8646.5,9.102 A2.5,2.5 0 0 1 8649,6.602 " fill="#77AADD" style="stroke:#181818;stroke-width:0.5;"/><line style="stroke:#181818;stroke-width:0.5;" x1="8646.5" x2="8814" y1="31.6699" y2="31.6699"/><text fill="#000000" font-family="sans-serif" font-size="14" font-weight="bold" lengthAdjust="spacing" textLength="154.5" x="8650.5" y="23.5679">src.train.trainer.scikit</text><path d="M8858,6.602 L9103.3125,6.602 A3.75,3.75 0 0 1 9105.8125,9.102 L9112.8125,31.6699 L9117.3125,31.6699 A2.5,2.5 0 0 1 9119.8125,34.1699 L9119.8125,62.2378 A2.5,2.5 0 0 1 9117.3125,64.7378 L8858,64.7378 A2.5,2.5 0 0 1 8855.5,62.2378 L8855.5,9.102 A2.5,2.5 0 0 1 8858,6.602 " fill="#77AADD" style="stroke:#181818;stroke-width:0.5;"/><line style="stroke:#181818;stroke-width:0.5;" x1="8855.5" x2="9112.8125" y1="31.6699" y2="31.6699"/><text fill="#000000" font-family="sans-serif" font-size="14" font-weight="bold" lengthAdjust="spacing" textLength="244.3125" x="8859.5" y="23.5679">src.train.trainer.xgboost_interface</text><!--SRC=[hPRDJiCm48JlVGght7FjkIYG0mXLBKBSa1jSTzN6ZjO65I7U7TE012HURtukZXJFpEUn4YTEUM5afLmjIxLHjKJfBGfZZPg5MmUfbPWxB3EF4ampAfmBwKJhhhXOB9RBF1Vlim_2d5sTwX1lFCZZMcbKpe4rzrGoQPa2crNXCe1zzd4NKA1yXX1qQQtpOFHtcaMwUyes5PxQ0vQNkv2REmLwlxNec3iGDun7KgqJBYxyDemIkOzwH3qIHjMaB6oirHB1xoiesKK9onHOidBArsC14Dw8FgMxzQE1YRg4YOjUsUERiLMFOvjmJ02b6gTiNFoco9c7L8To18Jg5fEpSGzhRgUsSWI4x1IHSt6FnVdJHDVvAneMJPNeKB8XUljblOPKXV-wmG2oIAUOYofVy5Njm4V2VwQvSQw4GpIicUH6dPfUJs2ymbtuuusajdI_0Py0]--></g></svg>