<?xml version="1.0" encoding="us-ascii" standalone="no"?><svg xmlns="http://www.w3.org/2000/svg" xmlns:xlink="http://www.w3.org/1999/xlink" contentStyleType="text/css" height="71px" preserveAspectRatio="none" style="width:277px;height:71px;background:#FFFFFF;" version="1.1" viewBox="0 0 277 71" width="277px" zoomAndPan="magnify"><defs/><g><path d="M8.5,6.602 L54.125,6.602 A3.75,3.75 0 0 1 56.625,9.102 L63.625,31.6699 L68.125,31.6699 A2.5,2.5 0 0 1 70.625,34.1699 L70.625,62.2378 A2.5,2.5 0 0 1 68.125,64.7378 L8.5,64.7378 A2.5,2.5 0 0 1 6,62.2378 L6,9.102 A2.5,2.5 0 0 1 8.5,6.602 " fill="#77AADD" style="stroke:#181818;stroke-width:0.5;"/><line style="stroke:#181818;stroke-width:0.5;" x1="6" x2="63.625" y1="31.6699" y2="31.6699"/><text fill="#000000" font-family="sans-serif" font-size="14" font-weight="bold" lengthAdjust="spacing" textLength="44.625" x="10" y="23.5679">server</text><path d="M109,6.602 L254.3125,6.602 A3.75,3.75 0 0 1 256.8125,9.102 L263.8125,31.6699 L268.3125,31.6699 A2.5,2.5 0 0 1 270.8125,34.1699 L270.8125,62.2378 A2.5,2.5 0 0 1 268.3125,64.7378 L109,64.7378 A2.5,2.5 0 0 1 106.5,62.2378 L106.5,9.102 A2.5,2.5 0 0 1 109,6.602 " fill="#77AADD" style="stroke:#181818;stroke-width:0.5;"/><line style="stroke:#181818;stroke-width:0.5;" x1="106.5" x2="263.8125" y1="31.6699" y2="31.6699"/><text fill="#000000" font-family="sans-serif" font-size="14" font-weight="bold" lengthAdjust="spacing" textLength="144.3125" x="110.5" y="23.5679">server.model_server</text><!--SRC=[AqujKSXBp4qjBaXCJWrEBKWiIYp9BrB8oyzBvG8APIUcfoee5QSMbQKMAIaa5Yj0c0hAvkQEZYuk2jLSjUZAz7BpKr9puZ7qe8WZ6m00]--></g></svg>