<?xml version="1.0" encoding="us-ascii" standalone="no"?><svg xmlns="http://www.w3.org/2000/svg" xmlns:xlink="http://www.w3.org/1999/xlink" contentStyleType="text/css" height="425px" preserveAspectRatio="none" style="width:10048px;height:425px;background:#FFFFFF;" version="1.1" viewBox="0 0 10048 425" width="10048px" zoomAndPan="magnify"><defs/><g><path d="M109,124.602 L144.1875,124.602 A3.75,3.75 0 0 1 146.6875,127.102 L153.6875,149.6699 L158.1875,149.6699 A2.5,2.5 0 0 1 160.6875,152.1699 L160.6875,180.2378 A2.5,2.5 0 0 1 158.1875,182.7378 L109,182.7378 A2.5,2.5 0 0 1 106.5,180.2378 L106.5,127.102 A2.5,2.5 0 0 1 109,124.602 " fill="#77AADD" style="stroke:#181818;stroke-width:0.5;"/><line style="stroke:#181818;stroke-width:0.5;" x1="106.5" x2="153.6875" y1="149.6699" y2="149.6699"/><text fill="#000000" font-family="sans-serif" font-size="14" font-weight="bold" lengthAdjust="spacing" textLength="34.1875" x="110.5" y="141.5679">train</text><path d="M506.5,6.602 L606.625,6.602 A3.75,3.75 0 0 1 609.125,9.102 L616.125,31.6699 L620.625,31.6699 A2.5,2.5 0 0 1 623.125,34.1699 L623.125,62.2378 A2.5,2.5 0 0 1 620.625,64.7378 L506.5,64.7378 A2.5,2.5 0 0 1 504,62.2378 L504,9.102 A2.5,2.5 0 0 1 506.5,6.602 " fill="#99DDFF" style="stroke:#181818;stroke-width:0.5;"/><line style="stroke:#181818;stroke-width:0.5;" x1="504" x2="616.125" y1="31.6699" y2="31.6699"/><text fill="#000000" font-family="sans-serif" font-size="14" font-weight="bold" lengthAdjust="spacing" textLength="99.125" x="508" y="23.5679">train.exporter</text><path d="M789,6.602 L954.0625,6.602 A3.75,3.75 0 0 1 956.5625,9.102 L963.5625,31.6699 L968.0625,31.6699 A2.5,2.5 0 0 1 970.5625,34.1699 L970.5625,62.2378 A2.5,2.5 0 0 1 968.0625,64.7378 L789,64.7378 A2.5,2.5 0 0 1 786.5,62.2378 L786.5,9.102 A2.5,2.5 0 0 1 789,6.602 " fill="#99DDFF" style="stroke:#181818;stroke-width:0.5;"/><line style="stroke:#181818;stroke-width:0.5;" x1="786.5" x2="963.5625" y1="31.6699" y2="31.6699"/><text fill="#000000" font-family="sans-serif" font-size="14" font-weight="bold" lengthAdjust="spacing" textLength="164.0625" x="790.5" y="23.5679">train.exporter.exporter</text><path d="M856.5,242.602 L1024,242.602 A3.75,3.75 0 0 1 1026.5,245.102 L1033.5,267.6699 L1038,267.6699 A2.5,2.5 0 0 1 1040.5,270.1699 L1040.5,298.2378 A2.5,2.5 0 0 1 1038,300.7378 L856.5,300.7378 A2.5,2.5 0 0 1 854,298.2378 L854,245.102 A2.5,2.5 0 0 1 856.5,242.602 " fill="#99DDFF" style="stroke:#181818;stroke-width:0.5;"/><line style="stroke:#181818;stroke-width:0.5;" x1="854" x2="1033.5" y1="267.6699" y2="267.6699"/><text fill="#000000" font-family="sans-serif" font-size="14" font-weight="bold" lengthAdjust="spacing" textLength="166.5" x="858" y="259.5679">train.exporter.validator</text><path d="M876,124.602 L1023.1875,124.602 A3.75,3.75 0 0 1 1025.6875,127.102 L1032.6875,149.6699 L1037.1875,149.6699 A2.5,2.5 0 0 1 1039.6875,152.1699 L1039.6875,180.2378 A2.5,2.5 0 0 1 1037.1875,182.7378 L876,182.7378 A2.5,2.5 0 0 1 873.5,180.2378 L873.5,127.102 A2.5,2.5 0 0 1 876,124.602 " fill="#99DDFF" style="stroke:#181818;stroke-width:0.5;"/><line style="stroke:#181818;stroke-width:0.5;" x1="873.5" x2="1032.6875" y1="149.6699" y2="149.6699"/><text fill="#000000" font-family="sans-serif" font-size="14" font-weight="bold" lengthAdjust="spacing" textLength="146.1875" x="877.5" y="141.5679">train.exporter.writer</text><path d="M566.5,360.602 L670.0625,360.602 A3.75,3.75 0 0 1 672.5625,363.102 L679.5625,385.6699 L684.0625,385.6699 A2.5,2.5 0 0 1 686.5625,388.1699 L686.5625,416.2378 A2.5,2.5 0 0 1 684.0625,418.7378 L566.5,418.7378 A2.5,2.5 0 0 1 564,416.2378 L564,363.102 A2.5,2.5 0 0 1 566.5,360.602 " fill="#44BB99" style="stroke:#181818;stroke-width:0.5;"/><line style="stroke:#181818;stroke-width:0.5;" x1="564" x2="679.5625" y1="385.6699" y2="385.6699"/><text fill="#000000" font-family="sans-serif" font-size="14" font-weight="bold" lengthAdjust="spacing" textLength="102.5625" x="568" y="377.5679">train.extractor</text><path d="M1086.5,124.602 L1258.4375,124.602 A3.75,3.75 0 0 1 1260.9375,127.102 L1267.9375,149.6699 L1272.4375,149.6699 A2.5,2.5 0 0 1 1274.9375,152.1699 L1274.9375,180.2378 A2.5,2.5 0 0 1 1272.4375,182.7378 L1086.5,182.7378 A2.5,2.5 0 0 1 1084,180.2378 L1084,127.102 A2.5,2.5 0 0 1 1086.5,124.602 " fill="#44BB99" style="stroke:#181818;stroke-width:0.5;"/><line style="stroke:#181818;stroke-width:0.5;" x1="1084" x2="1267.9375" y1="149.6699" y2="149.6699"/><text fill="#000000" font-family="sans-serif" font-size="14" font-weight="bold" lengthAdjust="spacing" textLength="170.9375" x="1088" y="141.5679">train.extractor.extractor</text><path d="M1079,242.602 L1266.375,242.602 A3.75,3.75 0 0 1 1268.875,245.102 L1275.875,267.6699 L1280.375,267.6699 A2.5,2.5 0 0 1 1282.875,270.1699 L1282.875,298.2378 A2.5,2.5 0 0 1 1280.375,300.7378 L1079,300.7378 A2.5,2.5 0 0 1 1076.5,298.2378 L1076.5,245.102 A2.5,2.5 0 0 1 1079,242.602 " fill="#44BB99" style="stroke:#181818;stroke-width:0.5;"/><line style="stroke:#181818;stroke-width:0.5;" x1="1076.5" x2="1275.875" y1="267.6699" y2="267.6699"/><text fill="#000000" font-family="sans-serif" font-size="14" font-weight="bold" lengthAdjust="spacing" textLength="186.375" x="1080.5" y="259.5679">train.extractor.preprocess</text><path d="M1057,6.602 L1288,6.602 A3.75,3.75 0 0 1 1290.5,9.102 L1297.5,31.6699 L1302,31.6699 A2.5,2.5 0 0 1 1304.5,34.1699 L1304.5,62.2378 A2.5,2.5 0 0 1 1302,64.7378 L1057,64.7378 A2.5,2.5 0 0 1 1054.5,62.2378 L1054.5,9.102 A2.5,2.5 0 0 1 1057,6.602 " fill="#44BB99" style="stroke:#181818;stroke-width:0.5;"/><line style="stroke:#181818;stroke-width:0.5;" x1="1054.5" x2="1297.5" y1="31.6699" y2="31.6699"/><text fill="#000000" font-family="sans-serif" font-size="14" font-weight="bold" lengthAdjust="spacing" textLength="230" x="1058.5" y="23.5679">train.extractor.smooth_extractor</text><path d="M404,360.602 L497.125,360.602 A3.75,3.75 0 0 1 499.625,363.102 L506.625,385.6699 L511.125,385.6699 A2.5,2.5 0 0 1 513.625,388.1699 L513.625,416.2378 A2.5,2.5 0 0 1 511.125,418.7378 L404,418.7378 A2.5,2.5 0 0 1 401.5,416.2378 L401.5,363.102 A2.5,2.5 0 0 1 404,360.602 " fill="#BBCC33" style="stroke:#181818;stroke-width:0.5;"/><line style="stroke:#181818;stroke-width:0.5;" x1="401.5" x2="506.625" y1="385.6699" y2="385.6699"/><text fill="#000000" font-family="sans-serif" font-size="14" font-weight="bold" lengthAdjust="spacing" textLength="92.125" x="405.5" y="377.5679">train.isolator</text><path d="M1363,124.602 L1514.0625,124.602 A3.75,3.75 0 0 1 1516.5625,127.102 L1523.5625,149.6699 L1528.0625,149.6699 A2.5,2.5 0 0 1 1530.5625,152.1699 L1530.5625,180.2378 A2.5,2.5 0 0 1 1528.0625,182.7378 L1363,182.7378 A2.5,2.5 0 0 1 1360.5,180.2378 L1360.5,127.102 A2.5,2.5 0 0 1 1363,124.602 " fill="#BBCC33" style="stroke:#181818;stroke-width:0.5;"/><line style="stroke:#181818;stroke-width:0.5;" x1="1360.5" x2="1523.5625" y1="149.6699" y2="149.6699"/><text fill="#000000" font-family="sans-serif" font-size="14" font-weight="bold" lengthAdjust="spacing" textLength="150.0625" x="1364.5" y="141.5679">train.isolator.isolator</text><path d="M1342.5,6.602 L1534.1875,6.602 A3.75,3.75 0 0 1 1536.6875,9.102 L1543.6875,31.6699 L1548.1875,31.6699 A2.5,2.5 0 0 1 1550.6875,34.1699 L1550.6875,62.2378 A2.5,2.5 0 0 1 1548.1875,64.7378 L1342.5,64.7378 A2.5,2.5 0 0 1 1340,62.2378 L1340,9.102 A2.5,2.5 0 0 1 1342.5,6.602 " fill="#BBCC33" style="stroke:#181818;stroke-width:0.5;"/><line style="stroke:#181818;stroke-width:0.5;" x1="1340" x2="1543.6875" y1="31.6699" y2="31.6699"/><text fill="#000000" font-family="sans-serif" font-size="14" font-weight="bold" lengthAdjust="spacing" textLength="190.6875" x="1344" y="23.5679">train.isolator.train_isolator</text><path d="M594,124.602 L735.1875,124.602 A3.75,3.75 0 0 1 737.6875,127.102 L744.6875,149.6699 L749.1875,149.6699 A2.5,2.5 0 0 1 751.6875,152.1699 L751.6875,180.2378 A2.5,2.5 0 0 1 749.1875,182.7378 L594,182.7378 A2.5,2.5 0 0 1 591.5,180.2378 L591.5,127.102 A2.5,2.5 0 0 1 594,124.602 " fill="#77AADD" style="stroke:#181818;stroke-width:0.5;"/><line style="stroke:#181818;stroke-width:0.5;" x1="591.5" x2="744.6875" y1="149.6699" y2="149.6699"/><text fill="#000000" font-family="sans-serif" font-size="14" font-weight="bold" lengthAdjust="spacing" textLength="140.1875" x="595.5" y="141.5679">train.offline_trainer</text><path d="M381.5,124.602 L521.25,124.602 A3.75,3.75 0 0 1 523.75,127.102 L530.75,149.6699 L535.25,149.6699 A2.5,2.5 0 0 1 537.75,152.1699 L537.75,180.2378 A2.5,2.5 0 0 1 535.25,182.7378 L381.5,182.7378 A2.5,2.5 0 0 1 379,180.2378 L379,127.102 A2.5,2.5 0 0 1 381.5,124.602 " fill="#77AADD" style="stroke:#181818;stroke-width:0.5;"/><line style="stroke:#181818;stroke-width:0.5;" x1="379" x2="530.75" y1="149.6699" y2="149.6699"/><text fill="#000000" font-family="sans-serif" font-size="14" font-weight="bold" lengthAdjust="spacing" textLength="138.75" x="383" y="141.5679">train.online_trainer</text><path d="M394.5,242.602 L492.625,242.602 A3.75,3.75 0 0 1 495.125,245.102 L502.125,267.6699 L506.625,267.6699 A2.5,2.5 0 0 1 509.125,270.1699 L509.125,298.2378 A2.5,2.5 0 0 1 506.625,300.7378 L394.5,300.7378 A2.5,2.5 0 0 1 392,298.2378 L392,245.102 A2.5,2.5 0 0 1 394.5,242.602 " fill="#77AADD" style="stroke:#181818;stroke-width:0.5;"/><line style="stroke:#181818;stroke-width:0.5;" x1="392" x2="502.125" y1="267.6699" y2="267.6699"/><text fill="#000000" font-family="sans-serif" font-size="14" font-weight="bold" lengthAdjust="spacing" textLength="97.125" x="396" y="259.5679">train.pipeline</text><path d="M1589,6.602 L1682.125,6.602 A3.75,3.75 0 0 1 1684.625,9.102 L1691.625,31.6699 L1696.125,31.6699 A2.5,2.5 0 0 1 1698.625,34.1699 L1698.625,62.2378 A2.5,2.5 0 0 1 1696.125,64.7378 L1589,64.7378 A2.5,2.5 0 0 1 1586.5,62.2378 L1586.5,9.102 A2.5,2.5 0 0 1 1589,6.602 " fill="#AAAA00" style="stroke:#181818;stroke-width:0.5;"/><line style="stroke:#181818;stroke-width:0.5;" x1="1586.5" x2="1691.625" y1="31.6699" y2="31.6699"/><text fill="#000000" font-family="sans-serif" font-size="14" font-weight="bold" lengthAdjust="spacing" textLength="92.125" x="1590.5" y="23.5679">train.profiler</text><path d="M21,6.602 L232.125,6.602 A3.75,3.75 0 0 1 234.625,9.102 L241.625,31.6699 L246.125,31.6699 A2.5,2.5 0 0 1 248.625,34.1699 L248.625,62.2378 A2.5,2.5 0 0 1 246.125,64.7378 L21,64.7378 A2.5,2.5 0 0 1 18.5,62.2378 L18.5,9.102 A2.5,2.5 0 0 1 21,6.602 " fill="#AAAA00" style="stroke:#181818;stroke-width:0.5;"/><line style="stroke:#181818;stroke-width:0.5;" x1="18.5" x2="241.625" y1="31.6699" y2="31.6699"/><text fill="#000000" font-family="sans-serif" font-size="14" font-weight="bold" lengthAdjust="spacing" textLength="210.125" x="22.5" y="23.5679">train.profiler.generate_scaler</text><path d="M8.5,360.602 L224.625,360.602 A3.75,3.75 0 0 1 227.125,363.102 L234.125,385.6699 L238.625,385.6699 A2.5,2.5 0 0 1 241.125,388.1699 L241.125,416.2378 A2.5,2.5 0 0 1 238.625,418.7378 L8.5,418.7378 A2.5,2.5 0 0 1 6,416.2378 L6,363.102 A2.5,2.5 0 0 1 8.5,360.602 " fill="#AAAA00" style="stroke:#181818;stroke-width:0.5;"/><line style="stroke:#181818;stroke-width:0.5;" x1="6" x2="234.125" y1="385.6699" y2="385.6699"/><text fill="#000000" font-family="sans-serif" font-size="14" font-weight="bold" lengthAdjust="spacing" textLength="215.125" x="10" y="377.5679">train.profiler.node_type_index</text><path d="M189,242.602 L340.0625,242.602 A3.75,3.75 0 0 1 342.5625,245.102 L349.5625,267.6699 L354.0625,267.6699 A2.5,2.5 0 0 1 356.5625,270.1699 L356.5625,298.2378 A2.5,2.5 0 0 1 354.0625,300.7378 L189,300.7378 A2.5,2.5 0 0 1 186.5,298.2378 L186.5,245.102 A2.5,2.5 0 0 1 189,242.602 " fill="#AAAA00" style="stroke:#181818;stroke-width:0.5;"/><line style="stroke:#181818;stroke-width:0.5;" x1="186.5" x2="349.5625" y1="267.6699" y2="267.6699"/><text fill="#000000" font-family="sans-serif" font-size="14" font-weight="bold" lengthAdjust="spacing" textLength="150.0625" x="190.5" y="259.5679">train.profiler.profiler</text><path d="M1736,6.602 L1813.375,6.602 A3.75,3.75 0 0 1 1815.875,9.102 L1822.875,31.6699 L1827.375,31.6699 A2.5,2.5 0 0 1 1829.875,34.1699 L1829.875,62.2378 A2.5,2.5 0 0 1 1827.375,64.7378 L1736,64.7378 A2.5,2.5 0 0 1 1733.5,62.2378 L1733.5,9.102 A2.5,2.5 0 0 1 1736,6.602 " fill="#EEDD88" style="stroke:#181818;stroke-width:0.5;"/><line style="stroke:#181818;stroke-width:0.5;" x1="1733.5" x2="1822.875" y1="31.6699" y2="31.6699"/><text fill="#000000" font-family="sans-serif" font-size="14" font-weight="bold" lengthAdjust="spacing" textLength="76.375" x="1737.5" y="23.5679">train.prom</text><path d="M1691,124.602 L1858.1875,124.602 A3.75,3.75 0 0 1 1860.6875,127.102 L1867.6875,149.6699 L1872.1875,149.6699 A2.5,2.5 0 0 1 1874.6875,152.1699 L1874.6875,180.2378 A2.5,2.5 0 0 1 1872.1875,182.7378 L1691,182.7378 A2.5,2.5 0 0 1 1688.5,180.2378 L1688.5,127.102 A2.5,2.5 0 0 1 1691,124.602 " fill="#EEDD88" style="stroke:#181818;stroke-width:0.5;"/><line style="stroke:#181818;stroke-width:0.5;" x1="1688.5" x2="1867.6875" y1="149.6699" y2="149.6699"/><text fill="#000000" font-family="sans-serif" font-size="14" font-weight="bold" lengthAdjust="spacing" textLength="166.1875" x="1692.5" y="141.5679">train.prom.prom_query</text><path d="M1867,6.602 L1955.6875,6.602 A3.75,3.75 0 0 1 1958.1875,9.102 L1965.1875,31.6699 L1969.6875,31.6699 A2.5,2.5 0 0 1 1972.1875,34.1699 L1972.1875,62.2378 A2.5,2.5 0 0 1 1969.6875,64.7378 L1867,64.7378 A2.5,2.5 0 0 1 1864.5,62.2378 L1864.5,9.102 A2.5,2.5 0 0 1 1867,6.602 " fill="#EE8866" style="stroke:#181818;stroke-width:0.5;"/><line style="stroke:#181818;stroke-width:0.5;" x1="1864.5" x2="1965.1875" y1="31.6699" y2="31.6699"/><text fill="#000000" font-family="sans-serif" font-size="14" font-weight="bold" lengthAdjust="spacing" textLength="87.6875" x="1868.5" y="23.5679">train.trainer</text><path d="M2010.5,6.602 L2318.875,6.602 A3.75,3.75 0 0 1 2321.375,9.102 L2328.375,31.6699 L2332.875,31.6699 A2.5,2.5 0 0 1 2335.375,34.1699 L2335.375,62.2378 A2.5,2.5 0 0 1 2332.875,64.7378 L2010.5,64.7378 A2.5,2.5 0 0 1 2008,62.2378 L2008,9.102 A2.5,2.5 0 0 1 2010.5,6.602 " fill="#EE8866" style="stroke:#181818;stroke-width:0.5;"/><line style="stroke:#181818;stroke-width:0.5;" x1="2008" x2="2328.375" y1="31.6699" y2="31.6699"/><text fill="#000000" font-family="sans-serif" font-size="14" font-weight="bold" lengthAdjust="spacing" textLength="307.375" x="2012" y="23.5679">train.trainer.ExponentialRegressionTrainer</text><path d="M2373,6.602 L2721.5625,6.602 A3.75,3.75 0 0 1 2724.0625,9.102 L2731.0625,31.6699 L2735.5625,31.6699 A2.5,2.5 0 0 1 2738.0625,34.1699 L2738.0625,62.2378 A2.5,2.5 0 0 1 2735.5625,64.7378 L2373,64.7378 A2.5,2.5 0 0 1 2370.5,62.2378 L2370.5,9.102 A2.5,2.5 0 0 1 2373,6.602 " fill="#EE8866" style="stroke:#181818;stroke-width:0.5;"/><line style="stroke:#181818;stroke-width:0.5;" x1="2370.5" x2="2731.0625" y1="31.6699" y2="31.6699"/><text fill="#000000" font-family="sans-serif" font-size="14" font-weight="bold" lengthAdjust="spacing" textLength="347.5625" x="2374.5" y="23.5679">train.trainer.ExponentialRegressionTrainer.main</text><path d="M2776.5,6.602 L3118.625,6.602 A3.75,3.75 0 0 1 3121.125,9.102 L3128.125,31.6699 L3132.625,31.6699 A2.5,2.5 0 0 1 3135.125,34.1699 L3135.125,62.2378 A2.5,2.5 0 0 1 3132.625,64.7378 L2776.5,64.7378 A2.5,2.5 0 0 1 2774,62.2378 L2774,9.102 A2.5,2.5 0 0 1 2776.5,6.602 " fill="#EE8866" style="stroke:#181818;stroke-width:0.5;"/><line style="stroke:#181818;stroke-width:0.5;" x1="2774" x2="3128.125" y1="31.6699" y2="31.6699"/><text fill="#000000" font-family="sans-serif" font-size="14" font-weight="bold" lengthAdjust="spacing" textLength="341.125" x="2778" y="23.5679">train.trainer.GradientBoostingRegressorTrainer</text><path d="M3172.5,6.602 L3554.8125,6.602 A3.75,3.75 0 0 1 3557.3125,9.102 L3564.3125,31.6699 L3568.8125,31.6699 A2.5,2.5 0 0 1 3571.3125,34.1699 L3571.3125,62.2378 A2.5,2.5 0 0 1 3568.8125,64.7378 L3172.5,64.7378 A2.5,2.5 0 0 1 3170,62.2378 L3170,9.102 A2.5,2.5 0 0 1 3172.5,6.602 " fill="#EE8866" style="stroke:#181818;stroke-width:0.5;"/><line style="stroke:#181818;stroke-width:0.5;" x1="3170" x2="3564.3125" y1="31.6699" y2="31.6699"/><text fill="#000000" font-family="sans-serif" font-size="14" font-weight="bold" lengthAdjust="spacing" textLength="381.3125" x="3174" y="23.5679">train.trainer.GradientBoostingRegressorTrainer.main</text><path d="M3608.5,6.602 L3910,6.602 A3.75,3.75 0 0 1 3912.5,9.102 L3919.5,31.6699 L3924,31.6699 A2.5,2.5 0 0 1 3926.5,34.1699 L3926.5,62.2378 A2.5,2.5 0 0 1 3924,64.7378 L3608.5,64.7378 A2.5,2.5 0 0 1 3606,62.2378 L3606,9.102 A2.5,2.5 0 0 1 3608.5,6.602 " fill="#EE8866" style="stroke:#181818;stroke-width:0.5;"/><line style="stroke:#181818;stroke-width:0.5;" x1="3606" x2="3919.5" y1="31.6699" y2="31.6699"/><text fill="#000000" font-family="sans-serif" font-size="14" font-weight="bold" lengthAdjust="spacing" textLength="300.5" x="3610" y="23.5679">train.trainer.KNeighborsRegressorTrainer</text><path d="M3964.5,6.602 L4306.1875,6.602 A3.75,3.75 0 0 1 4308.6875,9.102 L4315.6875,31.6699 L4320.1875,31.6699 A2.5,2.5 0 0 1 4322.6875,34.1699 L4322.6875,62.2378 A2.5,2.5 0 0 1 4320.1875,64.7378 L3964.5,64.7378 A2.5,2.5 0 0 1 3962,62.2378 L3962,9.102 A2.5,2.5 0 0 1 3964.5,6.602 " fill="#EE8866" style="stroke:#181818;stroke-width:0.5;"/><line style="stroke:#181818;stroke-width:0.5;" x1="3962" x2="4315.6875" y1="31.6699" y2="31.6699"/><text fill="#000000" font-family="sans-serif" font-size="14" font-weight="bold" lengthAdjust="spacing" textLength="340.6875" x="3966" y="23.5679">train.trainer.KNeighborsRegressorTrainer.main</text><path d="M4361,6.602 L4630.1875,6.602 A3.75,3.75 0 0 1 4632.6875,9.102 L4639.6875,31.6699 L4644.1875,31.6699 A2.5,2.5 0 0 1 4646.6875,34.1699 L4646.6875,62.2378 A2.5,2.5 0 0 1 4644.1875,64.7378 L4361,64.7378 A2.5,2.5 0 0 1 4358.5,62.2378 L4358.5,9.102 A2.5,2.5 0 0 1 4361,6.602 " fill="#EE8866" style="stroke:#181818;stroke-width:0.5;"/><line style="stroke:#181818;stroke-width:0.5;" x1="4358.5" x2="4639.6875" y1="31.6699" y2="31.6699"/><text fill="#000000" font-family="sans-serif" font-size="14" font-weight="bold" lengthAdjust="spacing" textLength="268.1875" x="4362.5" y="23.5679">train.trainer.LinearRegressionTrainer</text><path d="M4684,6.602 L4993.375,6.602 A3.75,3.75 0 0 1 4995.875,9.102 L5002.875,31.6699 L5007.375,31.6699 A2.5,2.5 0 0 1 5009.875,34.1699 L5009.875,62.2378 A2.5,2.5 0 0 1 5007.375,64.7378 L4684,64.7378 A2.5,2.5 0 0 1 4681.5,62.2378 L4681.5,9.102 A2.5,2.5 0 0 1 4684,6.602 " fill="#EE8866" style="stroke:#181818;stroke-width:0.5;"/><line style="stroke:#181818;stroke-width:0.5;" x1="4681.5" x2="5002.875" y1="31.6699" y2="31.6699"/><text fill="#000000" font-family="sans-serif" font-size="14" font-weight="bold" lengthAdjust="spacing" textLength="308.375" x="4685.5" y="23.5679">train.trainer.LinearRegressionTrainer.main</text><path d="M5047,6.602 L5356.375,6.602 A3.75,3.75 0 0 1 5358.875,9.102 L5365.875,31.6699 L5370.375,31.6699 A2.5,2.5 0 0 1 5372.875,34.1699 L5372.875,62.2378 A2.5,2.5 0 0 1 5370.375,64.7378 L5047,64.7378 A2.5,2.5 0 0 1 5044.5,62.2378 L5044.5,9.102 A2.5,2.5 0 0 1 5047,6.602 " fill="#EE8866" style="stroke:#181818;stroke-width:0.5;"/><line style="stroke:#181818;stroke-width:0.5;" x1="5044.5" x2="5365.875" y1="31.6699" y2="31.6699"/><text fill="#000000" font-family="sans-serif" font-size="14" font-weight="bold" lengthAdjust="spacing" textLength="308.375" x="5048.5" y="23.5679">train.trainer.LogarithmicRegressionTrainer</text><path d="M5410.5,6.602 L5760.0625,6.602 A3.75,3.75 0 0 1 5762.5625,9.102 L5769.5625,31.6699 L5774.0625,31.6699 A2.5,2.5 0 0 1 5776.5625,34.1699 L5776.5625,62.2378 A2.5,2.5 0 0 1 5774.0625,64.7378 L5410.5,64.7378 A2.5,2.5 0 0 1 5408,62.2378 L5408,9.102 A2.5,2.5 0 0 1 5410.5,6.602 " fill="#EE8866" style="stroke:#181818;stroke-width:0.5;"/><line style="stroke:#181818;stroke-width:0.5;" x1="5408" x2="5769.5625" y1="31.6699" y2="31.6699"/><text fill="#000000" font-family="sans-serif" font-size="14" font-weight="bold" lengthAdjust="spacing" textLength="348.5625" x="5412" y="23.5679">train.trainer.LogarithmicRegressionTrainer.main</text><path d="M5815,6.602 L6094.0625,6.602 A3.75,3.75 0 0 1 6096.5625,9.102 L6103.5625,31.6699 L6108.0625,31.6699 A2.5,2.5 0 0 1 6110.5625,34.1699 L6110.5625,62.2378 A2.5,2.5 0 0 1 6108.0625,64.7378 L5815,64.7378 A2.5,2.5 0 0 1 5812.5,62.2378 L5812.5,9.102 A2.5,2.5 0 0 1 5815,6.602 " fill="#EE8866" style="stroke:#181818;stroke-width:0.5;"/><line style="stroke:#181818;stroke-width:0.5;" x1="5812.5" x2="6103.5625" y1="31.6699" y2="31.6699"/><text fill="#000000" font-family="sans-serif" font-size="14" font-weight="bold" lengthAdjust="spacing" textLength="278.0625" x="5816.5" y="23.5679">train.trainer.LogisticRegressionTrainer</text><path d="M6148,6.602 L6467.25,6.602 A3.75,3.75 0 0 1 6469.75,9.102 L6476.75,31.6699 L6481.25,31.6699 A2.5,2.5 0 0 1 6483.75,34.1699 L6483.75,62.2378 A2.5,2.5 0 0 1 6481.25,64.7378 L6148,64.7378 A2.5,2.5 0 0 1 6145.5,62.2378 L6145.5,9.102 A2.5,2.5 0 0 1 6148,6.602 " fill="#EE8866" style="stroke:#181818;stroke-width:0.5;"/><line style="stroke:#181818;stroke-width:0.5;" x1="6145.5" x2="6476.75" y1="31.6699" y2="31.6699"/><text fill="#000000" font-family="sans-serif" font-size="14" font-weight="bold" lengthAdjust="spacing" textLength="318.25" x="6149.5" y="23.5679">train.trainer.LogisticRegressionTrainer.main</text><path d="M6521.5,6.602 L6823.4375,6.602 A3.75,3.75 0 0 1 6825.9375,9.102 L6832.9375,31.6699 L6837.4375,31.6699 A2.5,2.5 0 0 1 6839.9375,34.1699 L6839.9375,62.2378 A2.5,2.5 0 0 1 6837.4375,64.7378 L6521.5,64.7378 A2.5,2.5 0 0 1 6519,62.2378 L6519,9.102 A2.5,2.5 0 0 1 6521.5,6.602 " fill="#EE8866" style="stroke:#181818;stroke-width:0.5;"/><line style="stroke:#181818;stroke-width:0.5;" x1="6519" x2="6832.9375" y1="31.6699" y2="31.6699"/><text fill="#000000" font-family="sans-serif" font-size="14" font-weight="bold" lengthAdjust="spacing" textLength="300.9375" x="6523" y="23.5679">train.trainer.PolynomialRegressionTrainer</text><path d="M6877.5,6.602 L7219.625,6.602 A3.75,3.75 0 0 1 7222.125,9.102 L7229.125,31.6699 L7233.625,31.6699 A2.5,2.5 0 0 1 7236.125,34.1699 L7236.125,62.2378 A2.5,2.5 0 0 1 7233.625,64.7378 L6877.5,64.7378 A2.5,2.5 0 0 1 6875,62.2378 L6875,9.102 A2.5,2.5 0 0 1 6877.5,6.602 " fill="#EE8866" style="stroke:#181818;stroke-width:0.5;"/><line style="stroke:#181818;stroke-width:0.5;" x1="6875" x2="7229.125" y1="31.6699" y2="31.6699"/><text fill="#000000" font-family="sans-serif" font-size="14" font-weight="bold" lengthAdjust="spacing" textLength="341.125" x="6879" y="23.5679">train.trainer.PolynomialRegressionTrainer.main</text><path d="M7273.5,6.602 L7519.9375,6.602 A3.75,3.75 0 0 1 7522.4375,9.102 L7529.4375,31.6699 L7533.9375,31.6699 A2.5,2.5 0 0 1 7536.4375,34.1699 L7536.4375,62.2378 A2.5,2.5 0 0 1 7533.9375,64.7378 L7273.5,64.7378 A2.5,2.5 0 0 1 7271,62.2378 L7271,9.102 A2.5,2.5 0 0 1 7273.5,6.602 " fill="#EE8866" style="stroke:#181818;stroke-width:0.5;"/><line style="stroke:#181818;stroke-width:0.5;" x1="7271" x2="7529.4375" y1="31.6699" y2="31.6699"/><text fill="#000000" font-family="sans-serif" font-size="14" font-weight="bold" lengthAdjust="spacing" textLength="245.4375" x="7275" y="23.5679">train.trainer.SGDRegressorTrainer</text><path d="M7574,6.602 L7860.625,6.602 A3.75,3.75 0 0 1 7863.125,9.102 L7870.125,31.6699 L7874.625,31.6699 A2.5,2.5 0 0 1 7877.125,34.1699 L7877.125,62.2378 A2.5,2.5 0 0 1 7874.625,64.7378 L7574,64.7378 A2.5,2.5 0 0 1 7571.5,62.2378 L7571.5,9.102 A2.5,2.5 0 0 1 7574,6.602 " fill="#EE8866" style="stroke:#181818;stroke-width:0.5;"/><line style="stroke:#181818;stroke-width:0.5;" x1="7571.5" x2="7870.125" y1="31.6699" y2="31.6699"/><text fill="#000000" font-family="sans-serif" font-size="14" font-weight="bold" lengthAdjust="spacing" textLength="285.625" x="7575.5" y="23.5679">train.trainer.SGDRegressorTrainer.main</text><path d="M7915,6.602 L8158.4375,6.602 A3.75,3.75 0 0 1 8160.9375,9.102 L8167.9375,31.6699 L8172.4375,31.6699 A2.5,2.5 0 0 1 8174.9375,34.1699 L8174.9375,62.2378 A2.5,2.5 0 0 1 8172.4375,64.7378 L7915,64.7378 A2.5,2.5 0 0 1 7912.5,62.2378 L7912.5,9.102 A2.5,2.5 0 0 1 7915,6.602 " fill="#EE8866" style="stroke:#181818;stroke-width:0.5;"/><line style="stroke:#181818;stroke-width:0.5;" x1="7912.5" x2="8167.9375" y1="31.6699" y2="31.6699"/><text fill="#000000" font-family="sans-serif" font-size="14" font-weight="bold" lengthAdjust="spacing" textLength="242.4375" x="7916.5" y="23.5679">train.trainer.SVRRegressorTrainer</text><path d="M8212.5,6.602 L8496.125,6.602 A3.75,3.75 0 0 1 8498.625,9.102 L8505.625,31.6699 L8510.125,31.6699 A2.5,2.5 0 0 1 8512.625,34.1699 L8512.625,62.2378 A2.5,2.5 0 0 1 8510.125,64.7378 L8212.5,64.7378 A2.5,2.5 0 0 1 8210,62.2378 L8210,9.102 A2.5,2.5 0 0 1 8212.5,6.602 " fill="#EE8866" style="stroke:#181818;stroke-width:0.5;"/><line style="stroke:#181818;stroke-width:0.5;" x1="8210" x2="8505.625" y1="31.6699" y2="31.6699"/><text fill="#000000" font-family="sans-serif" font-size="14" font-weight="bold" lengthAdjust="spacing" textLength="282.625" x="8214" y="23.5679">train.trainer.SVRRegressorTrainer.main</text><path d="M8551,6.602 L8754.25,6.602 A3.75,3.75 0 0 1 8756.75,9.102 L8763.75,31.6699 L8768.25,31.6699 A2.5,2.5 0 0 1 8770.75,34.1699 L8770.75,62.2378 A2.5,2.5 0 0 1 8768.25,64.7378 L8551,64.7378 A2.5,2.5 0 0 1 8548.5,62.2378 L8548.5,9.102 A2.5,2.5 0 0 1 8551,6.602 " fill="#EE8866" style="stroke:#181818;stroke-width:0.5;"/><line style="stroke:#181818;stroke-width:0.5;" x1="8548.5" x2="8763.75" y1="31.6699" y2="31.6699"/><text fill="#000000" font-family="sans-serif" font-size="14" font-weight="bold" lengthAdjust="spacing" textLength="202.25" x="8552.5" y="23.5679">train.trainer.XGBoostTrainer</text><path d="M8808,6.602 L9051.4375,6.602 A3.75,3.75 0 0 1 9053.9375,9.102 L9060.9375,31.6699 L9065.4375,31.6699 A2.5,2.5 0 0 1 9067.9375,34.1699 L9067.9375,62.2378 A2.5,2.5 0 0 1 9065.4375,64.7378 L8808,64.7378 A2.5,2.5 0 0 1 8805.5,62.2378 L8805.5,9.102 A2.5,2.5 0 0 1 8808,6.602 " fill="#EE8866" style="stroke:#181818;stroke-width:0.5;"/><line style="stroke:#181818;stroke-width:0.5;" x1="8805.5" x2="9060.9375" y1="31.6699" y2="31.6699"/><text fill="#000000" font-family="sans-serif" font-size="14" font-weight="bold" lengthAdjust="spacing" textLength="242.4375" x="8809.5" y="23.5679">train.trainer.XGBoostTrainer.main</text><path d="M9105.5,6.602 L9325.0625,6.602 A3.75,3.75 0 0 1 9327.5625,9.102 L9334.5625,31.6699 L9339.0625,31.6699 A2.5,2.5 0 0 1 9341.5625,34.1699 L9341.5625,62.2378 A2.5,2.5 0 0 1 9339.0625,64.7378 L9105.5,64.7378 A2.5,2.5 0 0 1 9103,62.2378 L9103,9.102 A2.5,2.5 0 0 1 9105.5,6.602 " fill="#EE8866" style="stroke:#181818;stroke-width:0.5;"/><line style="stroke:#181818;stroke-width:0.5;" x1="9103" x2="9334.5625" y1="31.6699" y2="31.6699"/><text fill="#000000" font-family="sans-serif" font-size="14" font-weight="bold" lengthAdjust="spacing" textLength="218.5625" x="9107" y="23.5679">train.trainer.XgboostFitTrainer</text><path d="M9379.5,6.602 L9639.25,6.602 A3.75,3.75 0 0 1 9641.75,9.102 L9648.75,31.6699 L9653.25,31.6699 A2.5,2.5 0 0 1 9655.75,34.1699 L9655.75,62.2378 A2.5,2.5 0 0 1 9653.25,64.7378 L9379.5,64.7378 A2.5,2.5 0 0 1 9377,62.2378 L9377,9.102 A2.5,2.5 0 0 1 9379.5,6.602 " fill="#EE8866" style="stroke:#181818;stroke-width:0.5;"/><line style="stroke:#181818;stroke-width:0.5;" x1="9377" x2="9648.75" y1="31.6699" y2="31.6699"/><text fill="#000000" font-family="sans-serif" font-size="14" font-weight="bold" lengthAdjust="spacing" textLength="258.75" x="9381" y="23.5679">train.trainer.XgboostFitTrainer.main</text><path d="M9693.5,6.602 L9841.125,6.602 A3.75,3.75 0 0 1 9843.625,9.102 L9850.625,31.6699 L9855.125,31.6699 A2.5,2.5 0 0 1 9857.625,34.1699 L9857.625,62.2378 A2.5,2.5 0 0 1 9855.125,64.7378 L9693.5,64.7378 A2.5,2.5 0 0 1 9691,62.2378 L9691,9.102 A2.5,2.5 0 0 1 9693.5,6.602 " fill="#EE8866" style="stroke:#181818;stroke-width:0.5;"/><line style="stroke:#181818;stroke-width:0.5;" x1="9691" x2="9850.625" y1="31.6699" y2="31.6699"/><text fill="#000000" font-family="sans-serif" font-size="14" font-weight="bold" lengthAdjust="spacing" textLength="146.625" x="9695" y="23.5679">train.trainer.curvefit</text><path d="M9895.5,6.602 L10025.25,6.602 A3.75,3.75 0 0 1 10027.75,9.102 L10034.75,31.6699 L10039.25,31.6699 A2.5,2.5 0 0 1 10041.75,34.1699 L10041.75,62.2378 A2.5,2.5 0 0 1 10039.25,64.7378 L9895.5,64.7378 A2.5,2.5 0 0 1 9893,62.2378 L9893,9.102 A2.5,2.5 0 0 1 9895.5,6.602 " fill="#EE8866" style="stroke:#181818;stroke-width:0.5;"/><line style="stroke:#181818;stroke-width:0.5;" x1="9893" x2="10034.75" y1="31.6699" y2="31.6699"/><text fill="#000000" font-family="sans-serif" font-size="14" font-weight="bold" lengthAdjust="spacing" textLength="128.75" x="9897" y="23.5679">train.trainer.scikit</text><path d="M9399.5,124.602 L9619.0625,124.602 A3.75,3.75 0 0 1 9621.5625,127.102 L9628.5625,149.6699 L9633.0625,149.6699 A2.5,2.5 0 0 1 9635.5625,152.1699 L9635.5625,180.2378 A2.5,2.5 0 0 1 9633.0625,182.7378 L9399.5,182.7378 A2.5,2.5 0 0 1 9397,180.2378 L9397,127.102 A2.5,2.5 0 0 1 9399.5,124.602 " fill="#EE8866" style="stroke:#181818;stroke-width:0.5;"/><line style="stroke:#181818;stroke-width:0.5;" x1="9397" x2="9628.5625" y1="149.6699" y2="149.6699"/><text fill="#000000" font-family="sans-serif" font-size="14" font-weight="bold" lengthAdjust="spacing" textLength="218.5625" x="9401" y="141.5679">train.trainer.xgboost_interface</text><!--link train to train.extractor--><g id="link_train_train.extractor"><path codeLine="96" d="M131.71,183.032 C131.31,216.252 136.17,270.492 168.5,300.602 C287.84,411.752 371.54,324.152 530.5,360.602 C541.31,363.082 546.9263,364.4596 557.9263,367.5696 " fill="none" id="train-to-train.extractor" style="stroke:#181818;stroke-width:1.0;"/><polygon fill="#181818" points="563.7,369.202,556.1277,362.9043,558.8886,367.8417,553.9512,370.6025,563.7,369.202" style="stroke:#181818;stroke-width:1.0;"/></g><!--link train to train.isolator--><g id="link_train_train.isolator"><path codeLine="97" d="M116.67,182.972 C100.18,214.892 81.06,266.692 107.5,300.602 C143.33,346.552 305.9016,371.4768 395.3816,382.0668 " fill="none" id="train-to-train.isolator" style="stroke:#181818;stroke-width:1.0;"/><polygon fill="#181818" points="401.34,382.772,392.8725,377.7419,396.3747,382.1843,391.9323,385.6865,401.34,382.772" style="stroke:#181818;stroke-width:1.0;"/></g><!--link train to train.pipeline--><g id="link_train_train.pipeline"><path codeLine="98" d="M160.8,164.592 C211.86,183.282 317.2254,221.8301 386.0354,247.0101 " fill="none" id="train-to-train.pipeline" style="stroke:#181818;stroke-width:1.0;"/><polygon fill="#181818" points="391.67,249.072,384.5927,242.2227,386.9745,247.3537,381.8435,249.7355,391.67,249.072" style="stroke:#181818;stroke-width:1.0;"/></g><!--link train to train.profiler.node_type_index--><g id="link_train_train.profiler.node_type_index"><path codeLine="99" d="M106.33,170.132 C82.9,185.242 50.68,210.582 36.5,242.602 C26.06,266.172 26.7,276.762 36.5,300.602 C46.22,324.252 61.1272,341.0475 79.1972,356.3975 " fill="none" id="train-to-train.profiler.node_type_index" style="stroke:#181818;stroke-width:1.0;"/><polygon fill="#181818" points="83.77,360.282,79.5004,351.4067,79.9593,357.0449,74.3211,357.5038,83.77,360.282" style="stroke:#181818;stroke-width:1.0;"/></g><!--link train to train.profiler.profiler--><g id="link_train_train.profiler.profiler"><path codeLine="100" d="M160.76,177.522 C182.84,196.072 209.4463,218.4422 233.1063,238.3222 " fill="none" id="train-to-train.profiler.profiler" style="stroke:#181818;stroke-width:1.0;"/><polygon fill="#181818" points="237.7,242.182,233.3827,233.3298,233.8719,238.9655,228.2363,239.4548,237.7,242.182" style="stroke:#181818;stroke-width:1.0;"/></g><!--link train.exporter.exporter to train.exporter.validator--><g id="link_train.exporter.exporter_train.exporter.validator"><path codeLine="101" d="M865.2,64.902 C852.97,95.172 839.02,144.022 855.5,182.602 C865.75,206.582 881.4208,223.3963 900.3708,238.6063 " fill="none" id="train.exporter.exporter-to-train.exporter.validator" style="stroke:#181818;stroke-width:1.0;"/><polygon fill="#181818" points="905.05,242.362,900.535,233.609,901.1507,239.2322,895.5274,239.8479,905.05,242.362" style="stroke:#181818;stroke-width:1.0;"/></g><!--link train.exporter.exporter to train.exporter.writer--><g id="link_train.exporter.exporter_train.exporter.writer"><path codeLine="102" d="M897.58,64.982 C909.67,82.952 921.8895,101.1446 933.9995,119.1346 " fill="none" id="train.exporter.exporter-to-train.exporter.writer" style="stroke:#181818;stroke-width:1.0;"/><polygon fill="#181818" points="937.35,124.112,935.6425,114.4123,934.5579,119.9642,929.006,118.8796,937.35,124.112" style="stroke:#181818;stroke-width:1.0;"/></g><!--link train.exporter.writer to train.exporter.validator--><g id="link_train.exporter.writer_train.exporter.validator"><path codeLine="103" d="M954.3,182.982 C952.9,200.952 951.5755,218.1401 950.1755,236.1301 " fill="none" id="train.exporter.writer-to-train.exporter.validator" style="stroke:#181818;stroke-width:1.0;"/><polygon fill="#181818" points="949.71,242.112,954.3962,233.4495,950.0979,237.1271,946.4203,232.8288,949.71,242.112" style="stroke:#181818;stroke-width:1.0;"/></g><!--link train.extractor.extractor to train.extractor.preprocess--><g id="link_train.extractor.extractor_train.extractor.preprocess"><path codeLine="104" d="M1179.5,182.982 C1179.5,200.952 1179.5,218.122 1179.5,236.112 " fill="none" id="train.extractor.extractor-to-train.extractor.preprocess" style="stroke:#181818;stroke-width:1.0;"/><polygon fill="#181818" points="1179.5,242.112,1183.5,233.112,1179.5,237.112,1175.5,233.112,1179.5,242.112" style="stroke:#181818;stroke-width:1.0;"/></g><!--link train.extractor.smooth_extractor to train.extractor.extractor--><g id="link_train.extractor.smooth_extractor_train.extractor.extractor"><path codeLine="105" d="M1179.5,64.982 C1179.5,82.952 1179.5,100.122 1179.5,118.112 " fill="none" id="train.extractor.smooth_extractor-to-train.extractor.extractor" style="stroke:#181818;stroke-width:1.0;"/><polygon fill="#181818" points="1179.5,124.112,1183.5,115.112,1179.5,119.112,1175.5,115.112,1179.5,124.112" style="stroke:#181818;stroke-width:1.0;"/></g><!--link train.isolator.train_isolator to train.isolator.isolator--><g id="link_train.isolator.train_isolator_train.isolator.isolator"><path codeLine="106" d="M1445.5,64.982 C1445.5,82.952 1445.5,100.122 1445.5,118.112 " fill="none" id="train.isolator.train_isolator-to-train.isolator.isolator" style="stroke:#181818;stroke-width:1.0;"/><polygon fill="#181818" points="1445.5,124.112,1449.5,115.112,1445.5,119.112,1441.5,115.112,1445.5,124.112" style="stroke:#181818;stroke-width:1.0;"/></g><!--link train.offline_trainer to train.extractor--><g id="link_train.offline_trainer_train.extractor"><path codeLine="107" d="M697.1,182.962 C720.63,212.662 749.23,260.472 730.5,300.602 C718.98,325.282 701.6686,342.0415 680.6286,356.8315 " fill="none" id="train.offline_trainer-to-train.extractor" style="stroke:#181818;stroke-width:1.0;"/><polygon fill="#181818" points="675.72,360.282,685.3832,358.3787,679.8105,357.4066,680.7826,351.8339,675.72,360.282" style="stroke:#181818;stroke-width:1.0;"/></g><!--link train.offline_trainer to train.isolator--><g id="link_train.offline_trainer_train.isolator"><path codeLine="108" d="M651.48,182.972 C629.55,213.302 592.68,262.202 556.5,300.602 C536.47,321.862 516.5315,339.8077 496.9015,356.4077 " fill="none" id="train.offline_trainer-to-train.isolator" style="stroke:#181818;stroke-width:1.0;"/><polygon fill="#181818" points="492.32,360.282,501.7751,357.5249,496.1379,357.0534,496.6093,351.4162,492.32,360.282" style="stroke:#181818;stroke-width:1.0;"/></g><!--link train.offline_trainer to train.pipeline--><g id="link_train.offline_trainer_train.pipeline"><path codeLine="109" d="M617.44,182.982 C583.19,200.952 544.3732,221.3345 510.0832,239.3245 " fill="none" id="train.offline_trainer-to-train.pipeline" style="stroke:#181818;stroke-width:1.0;"/><polygon fill="#181818" points="504.77,242.112,514.5981,241.4728,509.1976,239.7891,510.8814,234.3886,504.77,242.112" style="stroke:#181818;stroke-width:1.0;"/></g><!--link train.offline_trainer to train.profiler.profiler--><g id="link_train.offline_trainer_train.profiler.profiler"><path codeLine="110" d="M591.04,177.932 C523.05,197.652 431.7227,224.1411 362.4327,244.2311 " fill="none" id="train.offline_trainer-to-train.profiler.profiler" style="stroke:#181818;stroke-width:1.0;"/><polygon fill="#181818" points="356.67,245.902,366.4279,247.2375,361.4722,244.5096,364.2001,239.554,356.67,245.902" style="stroke:#181818;stroke-width:1.0;"/></g><!--link train.online_trainer to train.extractor--><g id="link_train.online_trainer_train.extractor"><path codeLine="111" d="M496.76,182.912 C516.42,198.852 539.7,220.052 556.5,242.602 C584.05,279.582 602.6365,323.6843 613.8665,354.5143 " fill="none" id="train.online_trainer-to-train.extractor" style="stroke:#181818;stroke-width:1.0;"/><polygon fill="#181818" points="615.92,360.152,616.5981,350.3265,614.2087,355.454,609.0813,353.0646,615.92,360.152" style="stroke:#181818;stroke-width:1.0;"/></g><!--link train.online_trainer to train.isolator--><g id="link_train.online_trainer_train.isolator"><path codeLine="112" d="M488.28,182.982 C502.83,198.932 518.83,220.122 526.5,242.602 C534.83,267.002 534.91,276.232 526.5,300.602 C518.71,323.172 506.5479,339.9708 491.7879,355.9008 " fill="none" id="train.online_trainer-to-train.isolator" style="stroke:#181818;stroke-width:1.0;"/><polygon fill="#181818" points="487.71,360.302,496.761,356.4188,491.1083,356.6343,490.8928,350.9816,487.71,360.302" style="stroke:#181818;stroke-width:1.0;"/></g><!--link train.online_trainer to train.pipeline--><g id="link_train.online_trainer_train.pipeline"><path codeLine="113" d="M456.54,182.982 C455.3,200.952 454.1259,218.1364 452.8759,236.1264 " fill="none" id="train.online_trainer-to-train.pipeline" style="stroke:#181818;stroke-width:1.0;"/><polygon fill="#181818" points="452.46,242.112,457.0742,233.4109,452.8066,237.124,449.0935,232.8564,452.46,242.112" style="stroke:#181818;stroke-width:1.0;"/></g><!--link train.online_trainer to train.profiler.profiler--><g id="link_train.online_trainer_train.profiler.profiler"><path codeLine="114" d="M412.75,182.982 C383.78,200.952 351.5291,220.9599 322.5191,238.9499 " fill="none" id="train.online_trainer-to-train.profiler.profiler" style="stroke:#181818;stroke-width:1.0;"/><polygon fill="#181818" points="317.42,242.112,327.1768,240.7682,321.6693,239.4769,322.9606,233.9694,317.42,242.112" style="stroke:#181818;stroke-width:1.0;"/></g><!--link train.pipeline to train.extractor--><g id="link_train.pipeline_train.extractor"><path codeLine="115" d="M493.31,300.982 C520.43,318.952 550.3784,338.8078 577.5284,356.7978 " fill="none" id="train.pipeline-to-train.extractor" style="stroke:#181818;stroke-width:1.0;"/><polygon fill="#181818" points="582.53,360.112,577.237,351.8063,578.362,357.3502,572.8181,358.4752,582.53,360.112" style="stroke:#181818;stroke-width:1.0;"/></g><!--link train.pipeline to train.isolator--><g id="link_train.pipeline_train.isolator"><path codeLine="116" d="M452.21,300.982 C453.3,318.952 454.3404,336.1328 455.4204,354.1228 " fill="none" id="train.pipeline-to-train.isolator" style="stroke:#181818;stroke-width:1.0;"/><polygon fill="#181818" points="455.78,360.112,459.2335,350.8885,455.4804,355.121,451.2479,351.3679,455.78,360.112" style="stroke:#181818;stroke-width:1.0;"/></g><!--link train.pipeline to train.profiler.node_type_index--><g id="link_train.pipeline_train.profiler.node_type_index"><path codeLine="117" d="M391.67,294.062 C385.53,296.282 379.39,298.492 373.5,300.602 C317.29,320.712 259.5025,341.058 210.5825,358.198 " fill="none" id="train.pipeline-to-train.profiler.node_type_index" style="stroke:#181818;stroke-width:1.0;"/><polygon fill="#181818" points="204.92,360.182,214.7364,360.981,209.6388,358.5287,212.0911,353.431,204.92,360.182" style="stroke:#181818;stroke-width:1.0;"/></g><!--link train.profiler.generate_scaler to train--><g id="link_train.profiler.generate_scaler_train"><path codeLine="118" d="M133.5,64.982 C133.5,82.952 133.5,100.122 133.5,118.112 " fill="none" id="train.profiler.generate_scaler-to-train" style="stroke:#181818;stroke-width:1.0;"/><polygon fill="#181818" points="133.5,124.112,137.5,115.112,133.5,119.112,129.5,115.112,133.5,124.112" style="stroke:#181818;stroke-width:1.0;"/></g><!--link train.prom to train.prom.prom_query--><g id="link_train.prom_train.prom.prom_query"><path codeLine="119" d="M1781.5,64.982 C1781.5,82.952 1781.5,100.122 1781.5,118.112 " fill="none" id="train.prom-to-train.prom.prom_query" style="stroke:#181818;stroke-width:1.0;"/><polygon fill="#181818" points="1781.5,124.112,1785.5,115.112,1781.5,119.112,1777.5,115.112,1781.5,124.112" style="stroke:#181818;stroke-width:1.0;"/></g><!--link train.trainer.XgboostFitTrainer.main to train.trainer.xgboost_interface--><g id="link_train.trainer.XgboostFitTrainer.main_train.trainer.xgboost_interface"><path codeLine="120" d="M9516.5,64.982 C9516.5,82.952 9516.5,100.122 9516.5,118.112 " fill="none" id="train.trainer.XgboostFitTrainer.main-to-train.trainer.xgboost_interface" style="stroke:#181818;stroke-width:1.0;"/><polygon fill="#181818" points="9516.5,124.112,9520.5,115.112,9516.5,119.112,9512.5,115.112,9516.5,124.112" style="stroke:#181818;stroke-width:1.0;"/></g><!--SRC=[hLVHRjem57tFLrZDSr6bLYsyJ886UDWqJUqqxIroWmbM4pjpqWuqxTzde874yRtSmFf0mVUSS-_1JiWfHSKKpqLPy4GyYu8RNcd3b5OYi4klF1NigZ9SgYl6IxPxnyA7X_4uYjYVuAy36eXreKqbp15zM6BXQ1H5inb6m_ZzXDvv9XTRBpwbGv4azTj8OA9z1HUn_nDtZ8yr5jxTJIQZ4Kh49VgA5KOKHYUYBBrgnp9DhiorhbOnFg8BmgHbgJDdr-eb5aucZu-tjnWDu_SJsdsCCRas0XFLosKcbOXtdredoQbWLvPMa8QYIXIo45jiWrmleJIZbp9hzQoNM3YsVpSt66sG2ZiNhqHS9jmluq98iaelhEjD8MAf5cBjatKW95d4BTLstkRcB9nEesWuXE2xb_ZNcp0RXzceO2BTGt4u3TFfS7X_Zv06KtitKq9LacTF8ZNssfTQVOSKKVYbxGPvwuU6pg4qdXk-a5PaedLPIPL-A6a3Upr5-Hzj8Sya7cM0pr-5J5SlsfG4np3uibQGonCCIjClzfKRoj45a1SqWMnXS58xdNBxRB7APK8oXi0lRGTQFCKXDfRsT5DD-h4NDKBi8GHAosywsoYT4s-h2Fh2Pf33KnHAs-TvHBYfU51dYaDU82YfpOydYeSkwannq0C0fRJvET_zJC3Zjm7z9Q6XFIYIUFgofSqaDhABEKiO7DmBfBH8tioxMChA8rgNA39b8b-z8li2HMAzzs0VRcqANTe0xr7hO5h2-pn_VVt93MsTIfrpEeKwGNGBm5Cu3ApV153mRmxgHla-f7rk3_nfdjIa6xyzNs8ZJWSdGx6Fxsm7c3sxs-JiLoTeWbkE8CcIxIE10O6TTo8jCgmYpgg8ewgUanxoCpoZ1-9Cvq7W5mySd0yAGID-jcIRcJ8WtHEFTF2cyWy0]--></g></svg>